<svg xmlns="http://www.w3.org/2000/svg" xmlns:xlink="http://www.w3.org/1999/xlink" width="501" zoomAndPan="magnify" viewBox="0 0 375.75 56.249996" height="75" preserveAspectRatio="xMidYMid meet" version="1.0"><defs><g/><clipPath id="84bfbd8193"><path d="M 2.347656 0 L 373.15625 0 L 373.15625 55.511719 L 2.347656 55.511719 Z M 2.347656 0 " clip-rule="nonzero"/></clipPath><clipPath id="0e52082ca6"><path d="M 139 18 L 234 18 L 234 22.804688 L 139 22.804688 Z M 139 18 " clip-rule="nonzero"/></clipPath><clipPath id="1a230e2f45"><path d="M 121.3125 4 L 247.957031 4 L 247.957031 22.804688 L 121.3125 22.804688 Z M 121.3125 4 " clip-rule="nonzero"/></clipPath></defs><g clip-path="url(#84bfbd8193)"><path fill="#ffffff" d="M 2.347656 0 L 373.402344 0 L 373.402344 55.546875 L 2.347656 55.546875 Z M 2.347656 0 " fill-opacity="1" fill-rule="nonzero"/><path fill="#ffffff" d="M 2.347656 0 L 373.402344 0 L 373.402344 55.546875 L 2.347656 55.546875 Z M 2.347656 0 " fill-opacity="1" fill-rule="nonzero"/></g><g clip-path="url(#0e52082ca6)"><path fill="#000000" d="M 143.835938 21.992188 C 147.277344 22.210938 150.707031 22.417969 154.136719 22.59375 C 154.429688 22.460938 154.863281 22.375 155.511719 22.332031 C 173.152344 21.433594 192.929688 20.929688 233.898438 18.804688 C 226.777344 18.328125 193.117188 19.515625 172.058594 20.175781 C 161.941406 20.492188 151.824219 20.910156 141.722656 21.523438 C 141.535156 21.527344 140.523438 21.621094 139.402344 21.773438 C 140.886719 21.824219 142.371094 21.898438 143.835938 21.992188 Z M 143.835938 21.992188 " fill-opacity="1" fill-rule="nonzero"/></g><g clip-path="url(#1a230e2f45)"><path fill="#ed2323" d="M 247.691406 22.4375 C 247.472656 21.84375 247.246094 21.265625 246.90625 20.738281 C 247.253906 20.234375 247.390625 19.675781 247.34375 18.988281 C 247.324219 18.792969 247.289062 18.605469 247.242188 18.417969 C 247.148438 18.023438 247.027344 17.480469 247.210938 17.296875 L 247.230469 17.273438 C 247.304688 17.195312 247.359375 17.101562 247.386719 16.996094 C 247.390625 16.953125 247.398438 16.910156 247.402344 16.875 L 247.402344 16.820312 C 247.390625 15.589844 247.109375 14.792969 245.691406 14.332031 C 244.796875 14.039062 243.746094 14.035156 242.816406 14.03125 L 242.4375 14.03125 C 241.082031 14.019531 239.726562 13.949219 238.4375 13.835938 C 237.5625 13.691406 236.679688 13.386719 235.824219 13.089844 C 235.542969 12.992188 235.269531 12.898438 234.992188 12.808594 C 234.128906 12.527344 233.265625 12.242188 232.398438 11.957031 C 230.949219 11.480469 229.441406 10.984375 227.957031 10.507812 C 222.636719 8.804688 216.953125 7.050781 211.117188 6.03125 C 200.546875 3.972656 190.28125 3.546875 180.628906 4.761719 C 171.15625 5.953125 162.703125 10.398438 154.535156 14.695312 L 152.953125 15.527344 C 147.707031 15.550781 140.875 15.816406 134.429688 17.683594 C 130.539062 18.804688 126.535156 20.351562 122.523438 22.285156 L 121.441406 22.804688 L 124.585938 22.796875 L 124.636719 22.777344 C 127.273438 21.636719 131.441406 20.023438 134.304688 19.136719 C 140.621094 17.183594 147.363281 16.902344 153.121094 16.882812 C 153.234375 16.886719 153.335938 16.859375 153.4375 16.808594 L 153.453125 16.796875 C 154.046875 16.488281 154.636719 16.179688 155.222656 15.871094 C 163.144531 11.703125 171.335938 7.394531 180.457031 6.148438 C 189.875 4.863281 200.082031 5.265625 210.808594 7.355469 C 216.53125 8.355469 222.234375 10.109375 227.578125 11.8125 C 229.203125 12.332031 230.847656 12.871094 232.441406 13.398438 L 234.363281 14.03125 L 235.261719 14.339844 C 236.214844 14.667969 237.199219 15.011719 238.195312 15.167969 L 238.246094 15.175781 L 238.320312 15.1875 C 239.675781 15.3125 241.160156 15.378906 242.871094 15.394531 C 243.703125 15.402344 244.523438 15.488281 245.339844 15.644531 C 245.671875 15.703125 245.839844 15.820312 245.925781 15.996094 C 244.03125 16.003906 242.1875 16.402344 240.617188 16.800781 L 240.179688 16.910156 C 238.996094 17.203125 237.652344 17.535156 236.605469 18.171875 C 236.398438 18.296875 236.28125 18.496094 236.277344 18.699219 C 236.269531 18.773438 236.273438 18.84375 236.289062 18.914062 C 236.765625 21.238281 239.316406 21.410156 240.15625 21.46875 C 242.152344 21.605469 244.019531 21.566406 245.699219 21.355469 C 246.015625 21.78125 246.230469 22.253906 246.378906 22.632812 L 246.449219 22.804688 L 247.828125 22.804688 Z M 245.546875 20.011719 C 244.222656 20.175781 242.847656 20.175781 241.433594 20.15625 L 241.125 20.15625 C 239.878906 20.148438 238.347656 20.140625 237.785156 19.089844 C 238.476562 18.773438 239.265625 18.566406 240.027344 18.367188 L 240.628906 18.207031 C 242.644531 17.652344 244.304688 17.382812 245.800781 17.363281 C 245.78125 17.683594 245.839844 18.023438 245.890625 18.359375 C 246.023438 19.1875 246.070312 19.722656 245.546875 20.011719 Z M 245.546875 20.011719 " fill-opacity="1" fill-rule="nonzero"/></g><path fill="#ed2323" d="M 225.082031 15.628906 C 225.082031 15.628906 223.960938 16.054688 223.472656 16.152344 C 222.648438 16.304688 219.828125 16.625 219.828125 16.625 C 222.664062 16.867188 234.695312 16.121094 234.171875 16.121094 C 231.328125 16.121094 227.296875 15.8125 225.082031 15.628906 Z M 225.082031 15.628906 " fill-opacity="1" fill-rule="nonzero"/><path fill="#ed2323" d="M 225.828125 13.121094 C 226.273438 12.667969 225.835938 12.414062 225.714844 12.371094 C 213.964844 8.449219 201.203125 6.300781 188.742188 6.5 C 187.710938 6.519531 186.675781 6.550781 185.648438 6.597656 C 177.957031 6.96875 170.445312 9.34375 163.574219 12.84375 L 163.5625 12.84375 C 163.429688 12.90625 163.296875 12.972656 163.171875 13.042969 C 160.855469 14.246094 158.609375 15.566406 156.433594 17.003906 C 155.859375 17.425781 155.980469 17.738281 156.617188 17.824219 C 157.332031 17.878906 158.457031 17.851562 159.351562 17.859375 C 160.472656 17.875 164.949219 17.796875 169.582031 17.703125 C 173.605469 17.617188 177.746094 17.523438 179.898438 17.457031 C 187.242188 17.234375 194.570312 17 201.917969 16.882812 C 205.898438 16.820312 209.878906 16.738281 213.851562 16.523438 C 216.292969 16.398438 219.007812 16.40625 221.351562 15.648438 C 223.046875 15.128906 224.570312 14.386719 225.828125 13.121094 Z M 157.78125 17.105469 C 158.914062 16.382812 160.070312 15.6875 161.25 15.019531 C 161.011719 15.632812 161.011719 16.316406 161.367188 17.039062 C 160.1875 17.078125 158.96875 17.152344 157.78125 17.105469 Z M 185.859375 16.394531 C 181.554688 16.539062 177.246094 16.726562 172.9375 16.828125 L 169.566406 16.898438 L 166.914062 16.949219 C 167.5625 15.785156 167.53125 14.851562 167.199219 14.167969 C 166.816406 13.363281 166.03125 12.910156 165.476562 12.820312 C 171.808594 9.796875 178.632812 7.785156 185.640625 7.414062 C 186.675781 7.363281 187.714844 7.324219 188.753906 7.304688 C 187.417969 10.167969 186.621094 13.34375 185.859375 16.394531 Z M 190.074219 16.410156 L 189.242188 16.417969 C 189.460938 14.082031 190.375 10.453125 190.910156 8.167969 C 190.910156 8.167969 190.285156 14.148438 190.074219 16.410156 Z M 210.109375 15.871094 C 204.980469 16.050781 199.847656 16.101562 194.71875 16.164062 L 193.289062 16.1875 C 193.324219 13.234375 193.574219 10.285156 193.746094 7.339844 C 198.480469 7.5 203.183594 7.976562 207.855469 8.761719 C 207.863281 8.773438 207.875 8.78125 207.882812 8.792969 C 210.308594 10.875 212.558594 13.21875 214.632812 15.667969 C 213.125 15.757812 211.613281 15.816406 210.109375 15.871094 Z M 216.886719 15.507812 C 216.472656 15.542969 216.058594 15.570312 215.640625 15.597656 C 213.710938 13.289062 211.625 11.050781 209.382812 9.023438 C 214.621094 9.976562 219.769531 11.28125 224.828125 12.941406 C 223.765625 13.867188 222.519531 14.4375 221.140625 14.863281 C 219.761719 15.285156 218.296875 15.386719 216.886719 15.507812 Z M 216.886719 15.507812 " fill-opacity="1" fill-rule="nonzero"/><g fill="#000000" fill-opacity="1"><g transform="translate(124.029601, 39.136491)"><g><path d="M 9.300781 0.191406 C 14.488281 0.191406 16.578125 -1.875 16.960938 -4.308594 L 14.835938 -4.308594 C 14.414062 -2.8125 12.84375 -1.722656 9.300781 -1.722656 C 5.148438 -1.722656 3.523438 -3.292969 3.523438 -5.570312 L 3.523438 -5.972656 C 3.523438 -8.25 5.148438 -9.820312 9.300781 -9.820312 C 12.480469 -9.820312 14.625 -8.691406 14.855469 -7.351562 L 16.976562 -7.351562 C 16.804688 -9.648438 14.125 -11.734375 9.300781 -11.734375 C 3.386719 -11.734375 1.53125 -8.996094 1.53125 -5.972656 L 1.53125 -5.570312 C 1.53125 -2.546875 3.386719 0.191406 9.300781 0.191406 Z M 9.300781 0.191406 "/></g></g></g><g fill="#000000" fill-opacity="1"><g transform="translate(144.278215, 39.136491)"><g><path d="M 12.671875 0 L 14.910156 0 L 8.632812 -11.425781 L 8.652344 -11.484375 L 6.355469 -11.484375 L 6.394531 -11.425781 L 0.0976562 0 L 2.335938 0 L 3.464844 -2.046875 L 11.542969 -2.046875 Z M 4.515625 -3.960938 L 7.503906 -9.398438 L 10.488281 -3.960938 Z M 4.515625 -3.960938 "/></g></g></g><g fill="#000000" fill-opacity="1"><g transform="translate(160.967127, 39.136491)"><g><path d="M 15.964844 -8.136719 L 15.964844 -8.34375 C 15.964844 -10.414062 14.625 -11.484375 12.382812 -11.484375 L 2.375 -11.484375 L 2.375 0 L 4.460938 0 L 4.460938 -4.441406 L 11.582031 -4.441406 C 13.515625 -4.441406 13.515625 -3.253906 13.515625 -2.355469 L 13.515625 -1.070312 C 13.515625 -0.726562 13.53125 -0.34375 13.589844 0 L 15.828125 0 C 15.773438 -0.34375 15.734375 -0.726562 15.734375 -1.148438 L 15.734375 -2.507812 C 15.734375 -3.695312 15.253906 -4.726562 14.144531 -5.339844 C 15.238281 -5.683594 15.964844 -6.46875 15.964844 -8.136719 Z M 4.460938 -6.488281 L 4.460938 -9.570312 L 12.382812 -9.570312 C 13.6875 -9.570312 13.972656 -8.902344 13.972656 -8.34375 L 13.972656 -8.136719 C 13.972656 -7.234375 13.476562 -6.488281 12.382812 -6.488281 Z M 4.460938 -6.488281 "/></g></g></g><g fill="#000000" fill-opacity="1"><g transform="translate(180.048308, 39.136491)"><g/></g></g><g fill="#000000" fill-opacity="1"><g transform="translate(189.38815, 39.136491)"><g><path d="M 14.355469 -11.484375 L 14.355469 -6.566406 L 4.324219 -6.566406 L 4.324219 -11.484375 L 2.375 -11.484375 L 2.375 0 L 4.324219 0 L 4.324219 -4.917969 L 14.355469 -4.917969 L 14.355469 0 L 16.308594 0 L 16.308594 -11.484375 Z M 14.355469 -11.484375 "/></g></g></g><g fill="#000000" fill-opacity="1"><g transform="translate(209.751591, 39.136491)"><g><path d="M 8.652344 0.191406 C 14.664062 0.191406 15.753906 -2.679688 15.753906 -5.589844 L 15.753906 -11.445312 L 13.628906 -11.445312 L 13.53125 -5.320312 C 13.53125 -3.195312 12.25 -1.855469 8.652344 -1.855469 C 5.167969 -1.855469 3.769531 -3.292969 3.769531 -5.320312 L 3.769531 -11.445312 L 1.644531 -11.445312 L 1.550781 -5.320312 C 1.550781 -2.546875 2.738281 0.191406 8.652344 0.191406 Z M 8.652344 0.191406 "/></g></g></g><g fill="#000000" fill-opacity="1"><g transform="translate(228.851907, 39.136491)"><g><path d="M 2.375 0 L 9.378906 0 C 12.402344 0 14.546875 -1.148438 14.546875 -3.503906 L 14.546875 -3.789062 C 14.546875 -5.609375 13.167969 -5.820312 12.996094 -5.972656 C 13.285156 -6.105469 14.296875 -6.546875 14.296875 -8.34375 L 14.296875 -8.5 C 14.296875 -10.625 12.421875 -11.484375 10.335938 -11.484375 L 2.375 -11.484375 Z M 4.324219 -7.023438 L 4.324219 -9.570312 L 10.335938 -9.570312 C 11.847656 -9.570312 12.308594 -9.09375 12.308594 -8.5 L 12.308594 -8.34375 C 12.308594 -7.273438 11.734375 -7.023438 10.335938 -7.023438 Z M 4.324219 -1.914062 L 4.324219 -4.976562 L 9.378906 -4.976562 C 11.523438 -4.976562 12.554688 -4.9375 12.554688 -3.789062 L 12.554688 -3.503906 C 12.554688 -2.871094 11.753906 -1.914062 9.378906 -1.914062 Z M 4.324219 -1.914062 "/></g></g></g><g fill="#ed2323" fill-opacity="1"><g transform="translate(139.933656, 50.116424)"><g><path d="M 0.671875 0 C 0.601562 -0.0625 0.625 -0.136719 0.644531 -0.226562 C 0.683594 -0.375 0.671875 -0.542969 0.671875 -0.699219 C 0.679688 -1.34375 0.679688 -1.992188 0.679688 -2.644531 C 0.679688 -3.007812 0.691406 -3.363281 0.691406 -3.71875 C 0.691406 -3.90625 0.691406 -4.089844 0.679688 -4.273438 C 0.671875 -4.417969 0.589844 -4.601562 0.636719 -4.746094 C 0.683594 -4.878906 0.835938 -4.84375 0.9375 -4.824219 C 1.136719 -4.796875 1.335938 -4.78125 1.535156 -4.796875 C 1.617188 -4.796875 1.699219 -4.808594 1.78125 -4.828125 C 1.863281 -4.851562 1.960938 -4.824219 1.988281 -4.734375 C 1.992188 -4.683594 1.988281 -4.636719 1.980469 -4.589844 C 1.9375 -4.363281 1.9375 -4.136719 1.9375 -3.90625 C 1.933594 -3.453125 1.9375 -2.988281 1.945312 -2.527344 C 1.953125 -2.292969 1.953125 -2.054688 1.953125 -1.816406 C 1.953125 -1.597656 1.925781 -1.382812 1.910156 -1.164062 C 1.902344 -1.101562 1.902344 -1.035156 1.953125 -0.988281 C 2.042969 -0.902344 2.179688 -0.980469 2.273438 -1 C 2.410156 -1.027344 2.554688 -1 2.691406 -1 C 3.238281 -0.980469 3.789062 -1 4.335938 -1 C 4.90625 -1 5.472656 -1 6.042969 -1.007812 C 6.226562 -1.007812 6.410156 -1.015625 6.597656 -1.015625 C 6.773438 -1.015625 6.773438 -0.988281 6.953125 -0.988281 C 7.0625 -0.988281 7.171875 -1.0625 7.273438 -1.035156 C 7.398438 -1 7.378906 -0.820312 7.363281 -0.734375 C 7.335938 -0.5625 7.289062 -0.402344 7.328125 -0.234375 C 7.34375 -0.191406 7.355469 -0.152344 7.355469 -0.101562 C 7.363281 0.0351562 7.21875 0.046875 7.117188 0.0351562 C 6.65625 -0.0351562 6.207031 -0.015625 5.746094 0 C 4.625 0.0273438 3.492188 0 2.371094 0 C 1.992188 0.0078125 1.609375 0 1.234375 -0.015625 C 1.097656 -0.0195312 0.972656 0.0625 0.835938 0.0625 C 0.78125 0.0625 0.71875 0.0429688 0.671875 0 Z M 0.671875 0 "/></g></g></g><g fill="#ed2323" fill-opacity="1"><g transform="translate(147.906954, 50.116424)"><g><path d="M 0.691406 -2.191406 C 0.699219 -1.925781 0.734375 -1.65625 0.828125 -1.402344 C 0.972656 -1 1.273438 -0.664062 1.625 -0.417969 C 1.980469 -0.171875 2.390625 -0.0195312 2.808594 0.0820312 C 3.808594 0.320312 4.863281 0.261719 5.855469 0.015625 C 6.398438 -0.125 6.953125 -0.320312 7.296875 -0.761719 C 7.6875 -1.261719 7.707031 -1.945312 7.714844 -2.582031 C 7.71875 -3.210938 7.734375 -3.84375 7.742188 -4.472656 C 7.742188 -4.574219 7.734375 -4.699219 7.644531 -4.761719 C 7.589844 -4.796875 7.519531 -4.796875 7.460938 -4.796875 L 6.652344 -4.796875 C 6.582031 -4.796875 6.507812 -4.789062 6.460938 -4.734375 C 6.425781 -4.691406 6.425781 -4.628906 6.425781 -4.574219 C 6.433594 -3.898438 6.445312 -3.226562 6.453125 -2.546875 C 6.460938 -2.0625 6.445312 -1.519531 6.109375 -1.164062 C 5.871094 -0.902344 5.5 -0.808594 5.152344 -0.753906 C 4.480469 -0.644531 3.792969 -0.65625 3.128906 -0.808594 C 2.878906 -0.863281 2.617188 -0.945312 2.410156 -1.117188 C 2.199219 -1.300781 2.070312 -1.570312 2.015625 -1.847656 C 1.953125 -2.125 1.953125 -2.410156 1.960938 -2.691406 C 1.960938 -3.328125 1.964844 -3.960938 1.972656 -4.597656 C 1.972656 -4.953125 1.636719 -4.78125 1.410156 -4.765625 C 1.234375 -4.753906 1.046875 -4.765625 0.871094 -4.800781 C 0.820312 -4.816406 0.773438 -4.824219 0.734375 -4.800781 C 0.664062 -4.765625 0.65625 -4.671875 0.664062 -4.589844 C 0.699219 -4.019531 0.710938 -3.445312 0.699219 -2.871094 C 0.691406 -2.644531 0.683594 -2.417969 0.691406 -2.191406 Z M 0.691406 -2.191406 "/></g></g></g><g fill="#ed2323" fill-opacity="1"><g transform="translate(156.613194, 50.116424)"><g><path d="M 0.363281 0 C 0.34375 -0.0703125 0.472656 -0.101562 0.527344 -0.136719 L 1.101562 -0.488281 C 1.480469 -0.726562 1.855469 -0.972656 2.238281 -1.210938 C 2.933594 -1.625 4.207031 -2.292969 3.84375 -2.542969 L 3.371094 -2.847656 C 3.046875 -3.054688 2.726562 -3.265625 2.40625 -3.472656 L 0.492188 -4.710938 C 0.363281 -4.800781 0.535156 -4.816406 0.601562 -4.824219 C 1.027344 -4.863281 1.464844 -4.800781 1.890625 -4.796875 C 2.015625 -4.796875 2.144531 -4.789062 2.261719 -4.753906 C 2.390625 -4.71875 2.507812 -4.644531 2.617188 -4.570312 L 4.917969 -3.070312 C 4.945312 -3.054688 4.964844 -3.042969 4.992188 -3.035156 C 5.0625 -3.019531 5.125 -3.070312 5.179688 -3.117188 C 5.90625 -3.734375 6.816406 -4.089844 7.554688 -4.691406 C 7.609375 -4.738281 7.664062 -4.789062 7.734375 -4.816406 C 7.828125 -4.851562 7.933594 -4.828125 8.035156 -4.816406 C 8.527344 -4.753906 9.035156 -4.761719 9.527344 -4.84375 C 9.574219 -4.851562 9.652344 -4.84375 9.652344 -4.796875 C 9.652344 -4.765625 9.625 -4.746094 9.597656 -4.734375 C 8.910156 -4.292969 8.21875 -3.855469 7.527344 -3.417969 C 7.042969 -3.101562 6.546875 -2.792969 6.0625 -2.480469 C 6.027344 -2.464844 5.992188 -2.4375 5.992188 -2.40625 C 5.992188 -2.316406 6.191406 -2.144531 7.871094 -1.152344 L 8.796875 -0.554688 C 8.933594 -0.464844 9.082031 -0.398438 9.226562 -0.316406 C 9.324219 -0.253906 9.433594 -0.207031 9.515625 -0.125 C 9.742188 0.0898438 9.261719 0.0195312 9.171875 0.015625 C 9.007812 0.0078125 8.851562 -0.0078125 8.691406 -0.0078125 C 8.382812 0 8.070312 0.0820312 7.769531 0 C 7.5625 -0.0625 7.398438 -0.199219 7.226562 -0.316406 C 7.007812 -0.457031 6.789062 -0.609375 6.5625 -0.753906 L 5.289062 -1.609375 C 5.210938 -1.65625 5.136719 -1.710938 5.046875 -1.71875 C 4.910156 -1.738281 4.78125 -1.65625 4.65625 -1.582031 C 3.988281 -1.128906 3.316406 -0.679688 2.636719 -0.226562 C 2.515625 -0.144531 2.390625 -0.0625 2.253906 -0.015625 C 1.972656 0.0742188 1.683594 0.0351562 1.398438 0.0078125 C 1.109375 -0.0273438 0.808594 0 0.527344 0.046875 C 0.488281 0.0546875 0.390625 0.0625 0.371094 0.0195312 C 0.363281 0.015625 0.363281 0.0078125 0.363281 0 Z M 0.363281 0 "/></g></g></g><g fill="#ed2323" fill-opacity="1"><g transform="translate(166.874362, 50.116424)"><g><path d="M 0.691406 -2.191406 C 0.699219 -1.925781 0.734375 -1.65625 0.828125 -1.402344 C 0.972656 -1 1.273438 -0.664062 1.625 -0.417969 C 1.980469 -0.171875 2.390625 -0.0195312 2.808594 0.0820312 C 3.808594 0.320312 4.863281 0.261719 5.855469 0.015625 C 6.398438 -0.125 6.953125 -0.320312 7.296875 -0.761719 C 7.6875 -1.261719 7.707031 -1.945312 7.714844 -2.582031 C 7.71875 -3.210938 7.734375 -3.84375 7.742188 -4.472656 C 7.742188 -4.574219 7.734375 -4.699219 7.644531 -4.761719 C 7.589844 -4.796875 7.519531 -4.796875 7.460938 -4.796875 L 6.652344 -4.796875 C 6.582031 -4.796875 6.507812 -4.789062 6.460938 -4.734375 C 6.425781 -4.691406 6.425781 -4.628906 6.425781 -4.574219 C 6.433594 -3.898438 6.445312 -3.226562 6.453125 -2.546875 C 6.460938 -2.0625 6.445312 -1.519531 6.109375 -1.164062 C 5.871094 -0.902344 5.5 -0.808594 5.152344 -0.753906 C 4.480469 -0.644531 3.792969 -0.65625 3.128906 -0.808594 C 2.878906 -0.863281 2.617188 -0.945312 2.410156 -1.117188 C 2.199219 -1.300781 2.070312 -1.570312 2.015625 -1.847656 C 1.953125 -2.125 1.953125 -2.410156 1.960938 -2.691406 C 1.960938 -3.328125 1.964844 -3.960938 1.972656 -4.597656 C 1.972656 -4.953125 1.636719 -4.78125 1.410156 -4.765625 C 1.234375 -4.753906 1.046875 -4.765625 0.871094 -4.800781 C 0.820312 -4.816406 0.773438 -4.824219 0.734375 -4.800781 C 0.664062 -4.765625 0.65625 -4.671875 0.664062 -4.589844 C 0.699219 -4.019531 0.710938 -3.445312 0.699219 -2.871094 C 0.691406 -2.644531 0.683594 -2.417969 0.691406 -2.191406 Z M 0.691406 -2.191406 "/></g></g></g><g fill="#ed2323" fill-opacity="1"><g transform="translate(175.580603, 50.116424)"><g><path d="M 7.707031 -0.273438 C 7.4375 -0.542969 7.171875 -0.808594 6.917969 -1.082031 C 6.789062 -1.210938 6.671875 -1.347656 6.546875 -1.480469 C 6.425781 -1.597656 6.273438 -1.683594 6.171875 -1.820312 C 6.15625 -1.84375 6.144531 -1.863281 6.152344 -1.882812 C 6.15625 -1.953125 6.480469 -1.972656 6.542969 -1.988281 C 6.683594 -2.027344 6.835938 -2.074219 6.964844 -2.15625 C 7.070312 -2.21875 7.171875 -2.292969 7.261719 -2.382812 C 7.308594 -2.4375 7.488281 -2.589844 7.488281 -2.671875 C 7.761719 -3.136719 7.742188 -3.773438 7.390625 -4.191406 C 7.179688 -4.445312 6.855469 -4.601562 6.535156 -4.683594 C 6.207031 -4.765625 5.863281 -4.773438 5.527344 -4.78125 C 3.964844 -4.824219 2.398438 -4.824219 0.835938 -4.789062 C 0.789062 -4.789062 0.738281 -4.789062 0.710938 -4.753906 C 0.683594 -4.726562 0.683594 -4.679688 0.683594 -4.644531 L 0.683594 -2.183594 C 0.683594 -1.773438 0.683594 -1.363281 0.683594 -0.960938 L 0.683594 -0.34375 C 0.683594 -0.21875 0.589844 -0.015625 0.761719 0.0351562 C 0.835938 0.0546875 0.902344 0.0351562 0.980469 0.0195312 C 1.234375 -0.0351562 1.5 -0.0273438 1.753906 0.0273438 C 1.800781 0.0429688 1.847656 0.0546875 1.890625 0.0429688 C 1.980469 0.0078125 1.992188 -0.109375 1.988281 -0.199219 C 1.988281 -0.480469 1.980469 -0.761719 1.972656 -1.035156 C 1.964844 -1.179688 1.964844 -1.320312 1.960938 -1.464844 C 1.960938 -1.5625 1.960938 -1.652344 1.953125 -1.746094 C 1.953125 -1.773438 1.953125 -1.808594 1.972656 -1.828125 C 2.035156 -1.890625 2.289062 -1.84375 2.375 -1.84375 C 2.535156 -1.84375 2.683594 -1.847656 2.84375 -1.847656 C 3.128906 -1.847656 3.417969 -1.847656 3.699219 -1.855469 L 4.234375 -1.855469 C 4.371094 -1.863281 4.507812 -1.863281 4.644531 -1.816406 C 4.84375 -1.753906 4.992188 -1.589844 5.128906 -1.429688 L 6.199219 -0.273438 C 6.289062 -0.179688 6.378906 -0.0742188 6.5 -0.0273438 C 6.601562 0.015625 6.71875 0.015625 6.835938 0.015625 L 7.855469 0.015625 C 7.882812 0.015625 7.917969 0.0078125 7.925781 -0.015625 C 7.933594 -0.0429688 7.910156 -0.0546875 7.898438 -0.0742188 C 7.835938 -0.144531 7.769531 -0.207031 7.707031 -0.273438 Z M 4.179688 -2.738281 L 3.871094 -2.738281 C 3.289062 -2.746094 2.707031 -2.746094 2.125 -2.746094 C 2.042969 -2.746094 1.972656 -2.765625 1.972656 -2.855469 C 1.972656 -3.070312 1.972656 -3.273438 1.964844 -3.488281 C 1.964844 -3.574219 1.902344 -3.835938 1.992188 -3.890625 C 2.035156 -3.925781 2.125 -3.90625 2.179688 -3.90625 C 2.261719 -3.90625 2.34375 -3.890625 2.433594 -3.898438 L 2.789062 -3.898438 C 3.390625 -3.90625 3.988281 -3.898438 4.589844 -3.898438 C 4.964844 -3.898438 5.34375 -3.90625 5.71875 -3.84375 C 5.882812 -3.816406 6.054688 -3.773438 6.191406 -3.671875 C 6.328125 -3.574219 6.425781 -3.398438 6.382812 -3.234375 C 6.363281 -3.125 6.273438 -3.027344 6.179688 -2.964844 C 6.074219 -2.90625 5.964844 -2.871094 5.851562 -2.84375 C 5.316406 -2.71875 4.738281 -2.726562 4.179688 -2.738281 Z M 4.179688 -2.738281 "/></g></g></g><g fill="#ed2323" fill-opacity="1"><g transform="translate(184.170394, 50.116424)"><g><path d="M 6.035156 -4.765625 C 6.027344 -4.761719 6.019531 -4.753906 6.015625 -4.753906 C 5.953125 -4.71875 5.90625 -4.671875 5.863281 -4.617188 C 5.21875 -3.917969 4.582031 -3.21875 3.9375 -2.515625 C 3.851562 -2.417969 3.761719 -2.417969 3.671875 -2.519531 C 3.0625 -3.191406 2.460938 -3.863281 1.847656 -4.542969 C 1.753906 -4.652344 1.644531 -4.761719 1.5 -4.796875 C 1.410156 -4.816406 1.320312 -4.800781 1.234375 -4.796875 C 0.972656 -4.765625 0.707031 -4.78125 0.445312 -4.835938 C 0.402344 -4.84375 0.363281 -4.851562 0.335938 -4.824219 C 0.28125 -4.765625 0.355469 -4.683594 0.417969 -4.652344 C 0.65625 -4.5 0.800781 -4.265625 0.988281 -4.0625 C 1.191406 -3.84375 1.410156 -3.628906 1.617188 -3.40625 C 1.882812 -3.136719 2.128906 -2.847656 2.382812 -2.574219 C 2.507812 -2.4375 2.636719 -2.292969 2.765625 -2.15625 C 2.878906 -2.035156 3.007812 -1.910156 3.109375 -1.78125 C 3.179688 -1.683594 3.199219 -1.597656 3.191406 -1.488281 C 3.183594 -1.046875 3.171875 -0.609375 3.164062 -0.171875 C 3.164062 -0.101562 3.171875 -0.015625 3.238281 0.0078125 C 3.253906 0.015625 3.273438 0.015625 3.289062 0.015625 C 3.636719 0.0078125 3.988281 0.0078125 4.335938 0.0078125 C 4.355469 0.0078125 4.382812 0.0078125 4.40625 -0.0078125 C 4.472656 -0.0351562 4.480469 -0.125 4.480469 -0.191406 C 4.464844 -0.582031 4.460938 -0.980469 4.453125 -1.371094 C 4.445312 -1.601562 4.507812 -1.765625 4.664062 -1.9375 L 6.617188 -4.074219 C 6.800781 -4.273438 6.988281 -4.472656 7.199219 -4.636719 C 7.246094 -4.671875 7.300781 -4.726562 7.273438 -4.773438 C 7.253906 -4.816406 7.199219 -4.824219 7.152344 -4.824219 C 6.878906 -4.816406 6.601562 -4.816406 6.324219 -4.808594 C 6.226562 -4.808594 6.125 -4.808594 6.035156 -4.765625 Z M 6.035156 -4.765625 "/></g></g></g><g fill="#ed2323" fill-opacity="1"><g transform="translate(192.123142, 50.116424)"><g/></g></g><g fill="#ed2323" fill-opacity="1"><g transform="translate(195.856341, 50.116424)"><g><path d="M 7.515625 -3.328125 C 7.570312 -3.347656 7.601562 -3.410156 7.597656 -3.554688 C 7.589844 -3.800781 7.574219 -4.042969 7.570312 -4.289062 C 7.570312 -4.34375 7.5625 -4.398438 7.542969 -4.445312 C 7.492188 -4.535156 7.300781 -4.574219 7.21875 -4.601562 C 7.109375 -4.644531 6.992188 -4.671875 6.878906 -4.707031 C 6.769531 -4.738281 6.652344 -4.753906 6.535156 -4.789062 C 6.183594 -4.871094 5.84375 -4.9375 5.488281 -4.964844 C 5.371094 -4.980469 5.253906 -4.972656 5.128906 -4.980469 C 5.015625 -4.988281 4.898438 -5.007812 4.773438 -5.007812 C 4.65625 -5.007812 4.542969 -4.992188 4.425781 -4.988281 C 3.5 -4.945312 2.527344 -4.761719 1.710938 -4.308594 C 1.410156 -4.144531 1.117188 -3.90625 0.882812 -3.65625 C 0.800781 -3.570312 0.734375 -3.472656 0.664062 -3.382812 C 0.410156 -3.007812 0.261719 -2.507812 0.363281 -2.042969 C 0.390625 -1.933594 0.4375 -1.820312 0.488281 -1.710938 C 0.882812 -0.820312 1.808594 -0.363281 2.691406 -0.0898438 C 2.800781 -0.0546875 2.910156 -0.0195312 3.027344 0.0078125 C 3.144531 0.0351562 3.261719 0.0546875 3.378906 0.0742188 C 4.074219 0.210938 4.773438 0.238281 5.488281 0.179688 C 5.601562 0.164062 5.726562 0.171875 5.84375 0.15625 C 6.164062 0.109375 6.480469 0.0351562 6.789062 -0.0625 C 6.964844 -0.117188 7.417969 -0.183594 7.519531 -0.347656 C 7.542969 -0.375 7.546875 -0.410156 7.546875 -0.445312 C 7.570312 -0.78125 7.625 -1.179688 7.5625 -1.507812 C 7.453125 -1.480469 7.355469 -1.371094 7.253906 -1.300781 C 7.15625 -1.234375 7.0625 -1.15625 6.945312 -1.101562 C 6.199219 -0.710938 5.328125 -0.574219 4.492188 -0.625 C 3.5625 -0.679688 2.4375 -0.925781 1.863281 -1.734375 C 1.5625 -2.152344 1.554688 -2.644531 1.855469 -3.0625 C 2.691406 -4.238281 4.625 -4.308594 5.890625 -4.054688 C 6.253906 -3.980469 6.625 -3.863281 6.945312 -3.691406 C 7.054688 -3.628906 7.363281 -3.292969 7.515625 -3.328125 Z M 7.515625 -3.328125 "/></g></g></g><g fill="#ed2323" fill-opacity="1"><g transform="translate(204.055687, 50.116424)"><g><path d="M 0.199219 -0.0078125 C 0.226562 0.0195312 0.261719 0.0195312 0.292969 0.0273438 C 0.636719 0.0429688 1.015625 0.125 1.34375 0.015625 C 1.746094 -0.109375 1.664062 -0.761719 2.136719 -0.761719 C 2.882812 -0.761719 3.628906 -0.746094 4.378906 -0.746094 C 4.746094 -0.746094 5.125 -0.746094 5.492188 -0.761719 C 5.789062 -0.765625 6.15625 -0.847656 6.445312 -0.789062 C 6.746094 -0.71875 6.753906 -0.273438 6.964844 -0.0976562 C 7.117188 0.0429688 7.351562 0.0429688 7.554688 0.0429688 C 7.761719 0.0351562 7.972656 0.0273438 8.179688 0.0273438 C 8.207031 0.0273438 8.234375 0.0273438 8.253906 0.015625 C 8.308594 -0.0273438 8.269531 -0.117188 8.226562 -0.171875 C 7.21875 -1.527344 6.273438 -2.933594 5.40625 -4.382812 C 5.296875 -4.574219 5.15625 -4.78125 4.945312 -4.84375 C 4.84375 -4.878906 4.726562 -4.863281 4.617188 -4.855469 C 4.234375 -4.824219 3.464844 -4.917969 3.234375 -4.570312 C 2.355469 -3.246094 1.472656 -1.925781 0.597656 -0.609375 C 0.527344 -0.515625 0.0898438 -0.136719 0.199219 -0.0078125 Z M 2.683594 -1.773438 C 2.671875 -1.800781 2.664062 -1.820312 2.664062 -1.847656 C 2.671875 -1.902344 2.707031 -1.945312 2.738281 -1.992188 C 3 -2.320312 3.253906 -2.664062 3.492188 -3.019531 C 3.617188 -3.207031 3.734375 -3.390625 3.851562 -3.574219 C 3.910156 -3.671875 4.082031 -4.097656 4.179688 -4.128906 C 4.398438 -4.210938 4.789062 -3.328125 4.898438 -3.152344 C 5.171875 -2.738281 5.460938 -2.335938 5.761719 -1.945312 C 5.796875 -1.902344 5.828125 -1.847656 5.824219 -1.800781 C 5.773438 -1.570312 5.070312 -1.753906 4.910156 -1.761719 C 4.289062 -1.816406 3.644531 -1.765625 3.019531 -1.683594 C 2.945312 -1.679688 2.871094 -1.664062 2.800781 -1.691406 C 2.753906 -1.707031 2.707031 -1.734375 2.683594 -1.773438 Z M 2.683594 -1.773438 "/></g></g></g><g fill="#ed2323" fill-opacity="1"><g transform="translate(212.823576, 50.116424)"><g><path d="M 7.707031 -0.273438 C 7.4375 -0.542969 7.171875 -0.808594 6.917969 -1.082031 C 6.789062 -1.210938 6.671875 -1.347656 6.546875 -1.480469 C 6.425781 -1.597656 6.273438 -1.683594 6.171875 -1.820312 C 6.15625 -1.84375 6.144531 -1.863281 6.152344 -1.882812 C 6.15625 -1.953125 6.480469 -1.972656 6.542969 -1.988281 C 6.683594 -2.027344 6.835938 -2.074219 6.964844 -2.15625 C 7.070312 -2.21875 7.171875 -2.292969 7.261719 -2.382812 C 7.308594 -2.4375 7.488281 -2.589844 7.488281 -2.671875 C 7.761719 -3.136719 7.742188 -3.773438 7.390625 -4.191406 C 7.179688 -4.445312 6.855469 -4.601562 6.535156 -4.683594 C 6.207031 -4.765625 5.863281 -4.773438 5.527344 -4.78125 C 3.964844 -4.824219 2.398438 -4.824219 0.835938 -4.789062 C 0.789062 -4.789062 0.738281 -4.789062 0.710938 -4.753906 C 0.683594 -4.726562 0.683594 -4.679688 0.683594 -4.644531 L 0.683594 -2.183594 C 0.683594 -1.773438 0.683594 -1.363281 0.683594 -0.960938 L 0.683594 -0.34375 C 0.683594 -0.21875 0.589844 -0.015625 0.761719 0.0351562 C 0.835938 0.0546875 0.902344 0.0351562 0.980469 0.0195312 C 1.234375 -0.0351562 1.5 -0.0273438 1.753906 0.0273438 C 1.800781 0.0429688 1.847656 0.0546875 1.890625 0.0429688 C 1.980469 0.0078125 1.992188 -0.109375 1.988281 -0.199219 C 1.988281 -0.480469 1.980469 -0.761719 1.972656 -1.035156 C 1.964844 -1.179688 1.964844 -1.320312 1.960938 -1.464844 C 1.960938 -1.5625 1.960938 -1.652344 1.953125 -1.746094 C 1.953125 -1.773438 1.953125 -1.808594 1.972656 -1.828125 C 2.035156 -1.890625 2.289062 -1.84375 2.375 -1.84375 C 2.535156 -1.84375 2.683594 -1.847656 2.84375 -1.847656 C 3.128906 -1.847656 3.417969 -1.847656 3.699219 -1.855469 L 4.234375 -1.855469 C 4.371094 -1.863281 4.507812 -1.863281 4.644531 -1.816406 C 4.84375 -1.753906 4.992188 -1.589844 5.128906 -1.429688 L 6.199219 -0.273438 C 6.289062 -0.179688 6.378906 -0.0742188 6.5 -0.0273438 C 6.601562 0.015625 6.71875 0.015625 6.835938 0.015625 L 7.855469 0.015625 C 7.882812 0.015625 7.917969 0.0078125 7.925781 -0.015625 C 7.933594 -0.0429688 7.910156 -0.0546875 7.898438 -0.0742188 C 7.835938 -0.144531 7.769531 -0.207031 7.707031 -0.273438 Z M 4.179688 -2.738281 L 3.871094 -2.738281 C 3.289062 -2.746094 2.707031 -2.746094 2.125 -2.746094 C 2.042969 -2.746094 1.972656 -2.765625 1.972656 -2.855469 C 1.972656 -3.070312 1.972656 -3.273438 1.964844 -3.488281 C 1.964844 -3.574219 1.902344 -3.835938 1.992188 -3.890625 C 2.035156 -3.925781 2.125 -3.90625 2.179688 -3.90625 C 2.261719 -3.90625 2.34375 -3.890625 2.433594 -3.898438 L 2.789062 -3.898438 C 3.390625 -3.90625 3.988281 -3.898438 4.589844 -3.898438 C 4.964844 -3.898438 5.34375 -3.90625 5.71875 -3.84375 C 5.882812 -3.816406 6.054688 -3.773438 6.191406 -3.671875 C 6.328125 -3.574219 6.425781 -3.398438 6.382812 -3.234375 C 6.363281 -3.125 6.273438 -3.027344 6.179688 -2.964844 C 6.074219 -2.90625 5.964844 -2.871094 5.851562 -2.84375 C 5.316406 -2.71875 4.738281 -2.726562 4.179688 -2.738281 Z M 4.179688 -2.738281 "/></g></g></g><g fill="#ed2323" fill-opacity="1"><g transform="translate(221.413368, 50.116424)"><g><path d="M 0.453125 -0.34375 C 0.464844 -0.320312 0.492188 -0.308594 0.519531 -0.292969 C 1.382812 0.109375 2.371094 0.183594 3.320312 0.21875 C 4.390625 0.261719 5.488281 0.253906 6.492188 -0.109375 C 6.746094 -0.207031 7.007812 -0.328125 7.164062 -0.546875 C 7.273438 -0.691406 7.328125 -0.871094 7.371094 -1.042969 C 7.417969 -1.234375 7.445312 -1.429688 7.410156 -1.628906 C 7.355469 -1.945312 7.125 -2.210938 6.851562 -2.382812 C 6.570312 -2.546875 6.246094 -2.628906 5.933594 -2.679688 C 4.679688 -2.878906 3.382812 -2.691406 2.136719 -2.933594 C 1.871094 -2.988281 1.554688 -3.109375 1.519531 -3.382812 C 1.5 -3.542969 1.597656 -3.699219 1.726562 -3.792969 C 1.855469 -3.890625 2.019531 -3.9375 2.179688 -3.972656 C 2.753906 -4.101562 3.347656 -4.144531 3.945312 -4.136719 C 4.238281 -4.136719 4.535156 -4.125 4.828125 -4.097656 C 4.953125 -4.089844 5.070312 -4.109375 5.183594 -4.089844 C 5.308594 -4.070312 5.425781 -4.027344 5.542969 -3.992188 C 5.738281 -3.953125 5.933594 -3.898438 6.117188 -3.835938 C 6.480469 -3.707031 6.828125 -3.527344 7.101562 -3.253906 C 7.101562 -3.589844 7.109375 -3.925781 7.117188 -4.261719 C 7.117188 -4.316406 7.117188 -4.363281 7.097656 -4.410156 C 7.070312 -4.464844 7.007812 -4.492188 6.953125 -4.519531 C 6.097656 -4.925781 5.117188 -4.980469 4.171875 -4.992188 C 3.28125 -5.007812 2.375 -4.980469 1.519531 -4.746094 C 1.144531 -4.644531 0.773438 -4.492188 0.515625 -4.199219 C 0.183594 -3.820312 0.125 -3.234375 0.375 -2.792969 C 0.5625 -2.472656 0.882812 -2.253906 1.226562 -2.128906 C 1.574219 -2 1.945312 -1.964844 2.316406 -1.9375 C 3.300781 -1.875 4.292969 -1.910156 5.289062 -1.835938 C 5.488281 -1.816406 5.699219 -1.792969 5.871094 -1.691406 C 6.046875 -1.589844 6.179688 -1.382812 6.136719 -1.183594 C 6.074219 -0.9375 5.796875 -0.820312 5.546875 -0.765625 C 5.074219 -0.65625 4.582031 -0.636719 4.097656 -0.625 C 3.453125 -0.617188 2.800781 -0.628906 2.164062 -0.753906 C 1.527344 -0.875 0.902344 -1.125 0.398438 -1.527344 C 0.382812 -1.15625 0.390625 -0.792969 0.417969 -0.429688 C 0.425781 -0.402344 0.425781 -0.375 0.4375 -0.355469 C 0.445312 -0.347656 0.445312 -0.34375 0.453125 -0.34375 Z M 0.453125 -0.34375 "/></g></g></g></svg>