<svg xmlns="http://www.w3.org/2000/svg" xmlns:xlink="http://www.w3.org/1999/xlink" width="501" zoomAndPan="magnify" viewBox="0 0 375.75 89.999999" height="120" preserveAspectRatio="xMidYMid meet" version="1.0"><defs><g/><clipPath id="1014b8bf44"><path d="M 106 29 L 278 29 L 278 37.425781 L 106 37.425781 Z M 106 29 " clip-rule="nonzero"/></clipPath><clipPath id="06c559d364"><path d="M 73.265625 3 L 302.765625 3 L 302.765625 37.425781 L 73.265625 37.425781 Z M 73.265625 3 " clip-rule="nonzero"/></clipPath></defs><g clip-path="url(#1014b8bf44)"><path fill="#000000" d="M 114.066406 35.945312 C 120.296875 36.339844 126.515625 36.71875 132.734375 37.042969 C 133.265625 36.800781 134.054688 36.644531 135.230469 36.566406 C 167.203125 34.917969 203.046875 34 277.304688 30.109375 C 264.402344 29.234375 203.390625 31.410156 165.214844 32.613281 C 146.882812 33.195312 128.542969 33.964844 110.230469 35.085938 C 109.894531 35.09375 108.0625 35.265625 106.027344 35.542969 C 108.71875 35.632812 111.40625 35.769531 114.066406 35.945312 Z M 114.066406 35.945312 " fill-opacity="1" fill-rule="nonzero"/></g><g clip-path="url(#06c559d364)"><path fill="#ed2323" d="M 302.308594 36.753906 C 301.910156 35.667969 301.5 34.609375 300.886719 33.644531 C 301.511719 32.722656 301.765625 31.699219 301.679688 30.441406 C 301.644531 30.085938 301.582031 29.738281 301.492188 29.394531 C 301.328125 28.675781 301.109375 27.683594 301.4375 27.347656 L 301.472656 27.304688 C 301.609375 27.160156 301.703125 26.988281 301.753906 26.792969 C 301.765625 26.714844 301.78125 26.640625 301.789062 26.570312 L 301.789062 26.472656 C 301.765625 24.222656 301.25 22.761719 298.683594 21.917969 C 297.058594 21.386719 295.15625 21.378906 293.472656 21.371094 L 292.785156 21.371094 C 290.328125 21.34375 287.875 21.21875 285.539062 21.011719 C 283.949219 20.75 282.347656 20.1875 280.796875 19.648438 C 280.292969 19.46875 279.789062 19.292969 279.292969 19.128906 C 277.726562 18.617188 276.15625 18.089844 274.589844 17.570312 C 271.960938 16.699219 269.230469 15.792969 266.539062 14.917969 C 256.898438 11.796875 246.589844 8.59375 236.015625 6.722656 C 216.851562 2.957031 198.253906 2.175781 180.75 4.398438 C 163.582031 6.578125 148.265625 14.71875 133.457031 22.582031 L 130.589844 24.105469 C 121.082031 24.148438 108.699219 24.640625 97.011719 28.050781 C 89.960938 30.109375 82.707031 32.9375 75.429688 36.476562 L 73.472656 37.425781 L 79.175781 37.410156 L 79.265625 37.375 C 84.046875 35.292969 91.597656 32.335938 96.785156 30.71875 C 108.238281 27.136719 120.457031 26.625 130.894531 26.589844 C 131.09375 26.59375 131.285156 26.546875 131.464844 26.453125 L 131.5 26.433594 C 132.570312 25.867188 133.636719 25.304688 134.699219 24.734375 C 149.0625 17.105469 163.910156 9.214844 180.441406 6.9375 C 197.511719 4.585938 216.015625 5.324219 235.453125 9.144531 C 245.828125 10.980469 256.164062 14.1875 265.851562 17.308594 C 268.800781 18.257812 271.78125 19.246094 274.667969 20.207031 L 278.152344 21.363281 L 279.78125 21.933594 C 281.503906 22.535156 283.289062 23.164062 285.097656 23.449219 L 285.1875 23.460938 L 285.324219 23.484375 C 287.777344 23.710938 290.472656 23.835938 293.570312 23.863281 C 295.078125 23.878906 296.570312 24.03125 298.050781 24.320312 C 298.648438 24.429688 298.949219 24.644531 299.109375 24.964844 C 295.671875 24.976562 292.332031 25.710938 289.488281 26.4375 L 288.691406 26.640625 C 286.546875 27.171875 284.113281 27.78125 282.210938 28.945312 C 281.839844 29.171875 281.628906 29.539062 281.621094 29.914062 C 281.605469 30.046875 281.613281 30.179688 281.640625 30.308594 C 282.507812 34.558594 287.132812 34.878906 288.648438 34.980469 C 292.269531 35.230469 295.652344 35.160156 298.695312 34.773438 C 299.273438 35.554688 299.65625 36.421875 299.933594 37.113281 L 300.054688 37.425781 L 302.558594 37.425781 Z M 298.421875 32.316406 C 296.023438 32.613281 293.527344 32.613281 290.964844 32.578125 L 290.410156 32.578125 C 288.148438 32.566406 285.371094 32.550781 284.355469 30.628906 C 285.605469 30.046875 287.035156 29.671875 288.417969 29.304688 L 289.507812 29.015625 C 293.164062 27.996094 296.167969 27.503906 298.882812 27.46875 C 298.847656 28.050781 298.949219 28.675781 299.046875 29.289062 C 299.285156 30.808594 299.367188 31.78125 298.421875 32.316406 Z M 298.421875 32.316406 " fill-opacity="1" fill-rule="nonzero"/></g><path fill="#ed2323" d="M 261.332031 24.292969 C 261.332031 24.292969 259.296875 25.074219 258.410156 25.25 C 256.917969 25.53125 251.804688 26.113281 251.804688 26.113281 C 256.945312 26.554688 278.753906 25.191406 277.800781 25.191406 C 272.648438 25.191406 265.34375 24.632812 261.332031 24.292969 Z M 261.332031 24.292969 " fill-opacity="1" fill-rule="nonzero"/><path fill="#ed2323" d="M 262.675781 19.703125 C 263.488281 18.871094 262.699219 18.410156 262.476562 18.332031 C 241.175781 11.148438 218.046875 7.214844 195.460938 7.582031 C 193.585938 7.617188 191.710938 7.671875 189.847656 7.761719 C 175.90625 8.441406 162.296875 12.789062 149.839844 19.191406 L 149.816406 19.191406 C 149.578125 19.308594 149.335938 19.433594 149.109375 19.558594 C 144.914062 21.761719 140.84375 24.179688 136.898438 26.8125 C 135.855469 27.582031 136.074219 28.15625 137.230469 28.308594 C 138.527344 28.410156 140.5625 28.363281 142.183594 28.378906 C 144.21875 28.40625 152.332031 28.257812 160.730469 28.085938 C 168.027344 27.933594 175.53125 27.761719 179.433594 27.636719 C 192.742188 27.226562 206.023438 26.804688 219.339844 26.589844 C 226.554688 26.472656 233.769531 26.320312 240.972656 25.933594 C 245.394531 25.699219 250.316406 25.71875 254.570312 24.328125 C 257.640625 23.378906 260.402344 22.023438 262.675781 19.703125 Z M 139.339844 26.992188 C 141.394531 25.671875 143.492188 24.402344 145.625 23.179688 C 145.191406 24.300781 145.191406 25.554688 145.839844 26.875 C 143.703125 26.945312 141.496094 27.082031 139.339844 26.992188 Z M 190.234375 25.691406 C 182.429688 25.960938 174.621094 26.300781 166.808594 26.488281 L 160.703125 26.617188 L 155.890625 26.707031 C 157.066406 24.578125 157.011719 22.867188 156.414062 21.621094 C 155.71875 20.144531 154.296875 19.316406 153.289062 19.148438 C 164.769531 13.617188 177.136719 9.933594 189.835938 9.257812 C 191.710938 9.160156 193.601562 9.089844 195.484375 9.054688 C 193.058594 14.296875 191.613281 20.113281 190.234375 25.691406 Z M 197.875 25.726562 L 196.363281 25.738281 C 196.761719 21.460938 198.417969 14.816406 199.386719 10.632812 C 199.386719 10.632812 198.257812 21.578125 197.875 25.726562 Z M 234.1875 24.734375 C 224.890625 25.066406 215.589844 25.15625 206.292969 25.269531 L 203.703125 25.316406 C 203.761719 19.910156 204.214844 14.511719 204.53125 9.117188 C 213.113281 9.414062 221.636719 10.28125 230.101562 11.722656 C 230.117188 11.742188 230.136719 11.761719 230.15625 11.777344 C 234.554688 15.589844 238.628906 19.882812 242.386719 24.363281 C 239.652344 24.527344 236.917969 24.640625 234.1875 24.734375 Z M 246.472656 24.070312 C 245.726562 24.132812 244.96875 24.183594 244.214844 24.238281 C 240.714844 20.007812 236.9375 15.910156 232.871094 12.199219 C 242.367188 13.945312 251.699219 16.335938 260.871094 19.371094 C 258.9375 21.066406 256.683594 22.113281 254.183594 22.886719 C 251.683594 23.664062 249.03125 23.851562 246.472656 24.070312 Z M 246.472656 24.070312 " fill-opacity="1" fill-rule="nonzero"/><g fill="#000000" fill-opacity="1"><g transform="translate(78.192888, 66.705811)"><g><path d="M 16.867188 0.347656 C 26.273438 0.347656 30.054688 -3.402344 30.75 -7.808594 L 26.898438 -7.808594 C 26.132812 -5.101562 23.289062 -3.125 16.867188 -3.125 C 9.335938 -3.125 6.386719 -5.96875 6.386719 -10.097656 L 6.386719 -10.828125 C 6.386719 -14.957031 9.335938 -17.804688 16.867188 -17.804688 C 22.628906 -17.804688 26.515625 -15.757812 26.933594 -13.328125 L 30.785156 -13.328125 C 30.472656 -17.492188 25.613281 -21.273438 16.867188 -21.273438 C 6.144531 -21.273438 2.777344 -16.3125 2.777344 -10.828125 L 2.777344 -10.097656 C 2.777344 -4.617188 6.144531 0.347656 16.867188 0.347656 Z M 16.867188 0.347656 "/></g></g></g><g fill="#000000" fill-opacity="1"><g transform="translate(114.907243, 66.705811)"><g><path d="M 22.976562 0 L 27.035156 0 L 15.652344 -20.71875 L 15.6875 -20.824219 L 11.523438 -20.824219 L 11.59375 -20.71875 L 0.171875 0 L 4.234375 0 L 6.28125 -3.714844 L 20.929688 -3.714844 Z M 8.191406 -7.183594 L 13.605469 -17.039062 L 19.019531 -7.183594 Z M 8.191406 -7.183594 "/></g></g></g><g fill="#000000" fill-opacity="1"><g transform="translate(145.167221, 66.705811)"><g><path d="M 28.945312 -14.75 L 28.945312 -15.132812 C 28.945312 -18.878906 26.515625 -20.824219 22.453125 -20.824219 L 4.304688 -20.824219 L 4.304688 0 L 8.085938 0 L 8.085938 -8.050781 L 20.996094 -8.050781 C 24.503906 -8.050781 24.503906 -5.898438 24.503906 -4.269531 L 24.503906 -1.945312 C 24.503906 -1.320312 24.539062 -0.625 24.640625 0 L 28.703125 0 C 28.597656 -0.625 28.527344 -1.320312 28.527344 -2.082031 L 28.527344 -4.546875 C 28.527344 -6.699219 27.660156 -8.574219 25.648438 -9.683594 C 27.625 -10.308594 28.945312 -11.730469 28.945312 -14.75 Z M 8.085938 -11.765625 L 8.085938 -17.351562 L 22.453125 -17.351562 C 24.816406 -17.351562 25.335938 -16.136719 25.335938 -15.132812 L 25.335938 -14.75 C 25.335938 -13.117188 24.433594 -11.765625 22.453125 -11.765625 Z M 8.085938 -11.765625 "/></g></g></g><g fill="#000000" fill-opacity="1"><g transform="translate(179.764812, 66.705811)"><g/></g></g><g fill="#000000" fill-opacity="1"><g transform="translate(196.699614, 66.705811)"><g><path d="M 26.03125 -20.824219 L 26.03125 -11.902344 L 7.84375 -11.902344 L 7.84375 -20.824219 L 4.304688 -20.824219 L 4.304688 0 L 7.84375 0 L 7.84375 -8.917969 L 26.03125 -8.917969 L 26.03125 0 L 29.570312 0 L 29.570312 -20.824219 Z M 26.03125 -20.824219 "/></g></g></g><g fill="#000000" fill-opacity="1"><g transform="translate(233.62217, 66.705811)"><g><path d="M 15.6875 0.347656 C 26.585938 0.347656 28.5625 -4.859375 28.5625 -10.132812 L 28.5625 -20.753906 L 24.710938 -20.753906 L 24.539062 -9.648438 C 24.539062 -5.796875 22.210938 -3.367188 15.6875 -3.367188 C 9.371094 -3.367188 6.835938 -5.96875 6.835938 -9.648438 L 6.835938 -20.753906 L 2.984375 -20.753906 L 2.8125 -9.648438 C 2.8125 -4.617188 4.964844 0.347656 15.6875 0.347656 Z M 15.6875 0.347656 "/></g></g></g><g fill="#000000" fill-opacity="1"><g transform="translate(268.254454, 66.705811)"><g><path d="M 4.304688 0 L 17.007812 0 C 22.488281 0 26.375 -2.082031 26.375 -6.351562 L 26.375 -6.871094 C 26.375 -10.167969 23.878906 -10.550781 23.566406 -10.828125 C 24.085938 -11.070312 25.925781 -11.871094 25.925781 -15.132812 L 25.925781 -15.410156 C 25.925781 -19.261719 22.523438 -20.824219 18.742188 -20.824219 L 4.304688 -20.824219 Z M 7.84375 -12.738281 L 7.84375 -17.351562 L 18.742188 -17.351562 C 21.484375 -17.351562 22.316406 -16.484375 22.316406 -15.410156 L 22.316406 -15.132812 C 22.316406 -13.1875 21.273438 -12.738281 18.742188 -12.738281 Z M 7.84375 -3.46875 L 7.84375 -9.023438 L 17.007812 -9.023438 C 20.894531 -9.023438 22.765625 -8.953125 22.765625 -6.871094 L 22.765625 -6.351562 C 22.765625 -5.207031 21.308594 -3.46875 17.007812 -3.46875 Z M 7.84375 -3.46875 "/></g></g></g><g fill="#ed2323" fill-opacity="1"><g transform="translate(107.029762, 86.614389)"><g><path d="M 1.21875 0 C 1.09375 -0.113281 1.128906 -0.25 1.167969 -0.410156 C 1.242188 -0.683594 1.21875 -0.980469 1.21875 -1.265625 C 1.230469 -2.433594 1.230469 -3.613281 1.230469 -4.792969 C 1.230469 -5.453125 1.253906 -6.097656 1.253906 -6.742188 C 1.253906 -7.078125 1.253906 -7.414062 1.230469 -7.75 C 1.21875 -8.011719 1.066406 -8.347656 1.15625 -8.605469 C 1.242188 -8.84375 1.515625 -8.78125 1.703125 -8.742188 C 2.0625 -8.695312 2.421875 -8.667969 2.78125 -8.695312 C 2.929688 -8.695312 3.082031 -8.71875 3.230469 -8.757812 C 3.378906 -8.792969 3.550781 -8.742188 3.601562 -8.582031 C 3.613281 -8.496094 3.601562 -8.410156 3.589844 -8.320312 C 3.515625 -7.910156 3.515625 -7.5 3.515625 -7.078125 C 3.503906 -6.257812 3.515625 -5.414062 3.527344 -4.582031 C 3.539062 -4.160156 3.539062 -3.726562 3.539062 -3.292969 C 3.539062 -2.894531 3.488281 -2.507812 3.464844 -2.113281 C 3.453125 -2 3.453125 -1.875 3.539062 -1.789062 C 3.703125 -1.640625 3.949219 -1.777344 4.125 -1.8125 C 4.371094 -1.863281 4.632812 -1.8125 4.882812 -1.8125 C 5.875 -1.777344 6.867188 -1.8125 7.863281 -1.8125 C 8.894531 -1.8125 9.921875 -1.8125 10.953125 -1.824219 C 11.289062 -1.824219 11.625 -1.839844 11.960938 -1.839844 C 12.285156 -1.839844 12.285156 -1.789062 12.605469 -1.789062 C 12.804688 -1.789062 13.003906 -1.925781 13.191406 -1.875 C 13.414062 -1.8125 13.375 -1.492188 13.351562 -1.328125 C 13.300781 -1.019531 13.214844 -0.734375 13.289062 -0.421875 C 13.3125 -0.347656 13.339844 -0.273438 13.339844 -0.1875 C 13.351562 0.0625 13.089844 0.0859375 12.90625 0.0625 C 12.074219 -0.0625 11.253906 -0.0234375 10.421875 0 C 8.382812 0.0507812 6.335938 0 4.296875 0 C 3.613281 0.0117188 2.917969 0 2.234375 -0.0234375 C 1.988281 -0.0390625 1.761719 0.113281 1.515625 0.113281 C 1.414062 0.113281 1.304688 0.0742188 1.21875 0 Z M 1.21875 0 "/></g></g></g><g fill="#ed2323" fill-opacity="1"><g transform="translate(121.486776, 86.614389)"><g><path d="M 1.253906 -3.972656 C 1.265625 -3.488281 1.328125 -3.003906 1.503906 -2.546875 C 1.761719 -1.8125 2.308594 -1.203125 2.945312 -0.757812 C 3.589844 -0.308594 4.335938 -0.0390625 5.09375 0.148438 C 6.90625 0.582031 8.816406 0.472656 10.621094 0.0234375 C 11.601562 -0.222656 12.605469 -0.582031 13.226562 -1.378906 C 13.933594 -2.285156 13.972656 -3.527344 13.984375 -4.683594 C 13.996094 -5.824219 14.023438 -6.96875 14.035156 -8.109375 C 14.035156 -8.296875 14.023438 -8.519531 13.859375 -8.632812 C 13.761719 -8.695312 13.636719 -8.695312 13.527344 -8.695312 L 12.058594 -8.695312 C 11.9375 -8.695312 11.800781 -8.683594 11.710938 -8.582031 C 11.648438 -8.507812 11.648438 -8.394531 11.648438 -8.296875 C 11.664062 -7.066406 11.6875 -5.851562 11.699219 -4.621094 C 11.710938 -3.738281 11.6875 -2.757812 11.078125 -2.113281 C 10.644531 -1.640625 9.972656 -1.464844 9.339844 -1.367188 C 8.121094 -1.167969 6.878906 -1.191406 5.675781 -1.464844 C 5.214844 -1.566406 4.746094 -1.714844 4.371094 -2.023438 C 3.988281 -2.359375 3.75 -2.84375 3.652344 -3.351562 C 3.539062 -3.851562 3.539062 -4.371094 3.550781 -4.882812 C 3.550781 -6.035156 3.566406 -7.179688 3.578125 -8.332031 C 3.578125 -8.980469 2.96875 -8.667969 2.558594 -8.644531 C 2.234375 -8.621094 1.898438 -8.644531 1.578125 -8.707031 C 1.492188 -8.730469 1.402344 -8.742188 1.328125 -8.707031 C 1.203125 -8.644531 1.191406 -8.46875 1.203125 -8.320312 C 1.265625 -7.289062 1.292969 -6.246094 1.265625 -5.203125 C 1.253906 -4.792969 1.242188 -4.382812 1.253906 -3.972656 Z M 1.253906 -3.972656 "/></g></g></g><g fill="#ed2323" fill-opacity="1"><g transform="translate(137.272745, 86.614389)"><g><path d="M 0.660156 0 C 0.621094 -0.125 0.855469 -0.1875 0.957031 -0.25 L 2 -0.882812 C 2.683594 -1.316406 3.367188 -1.761719 4.0625 -2.199219 C 5.316406 -2.945312 7.625 -4.160156 6.96875 -4.609375 L 6.109375 -5.167969 C 5.527344 -5.539062 4.941406 -5.925781 4.359375 -6.296875 L 0.894531 -8.546875 C 0.660156 -8.707031 0.96875 -8.730469 1.09375 -8.742188 C 1.863281 -8.816406 2.65625 -8.707031 3.429688 -8.695312 C 3.652344 -8.695312 3.886719 -8.683594 4.097656 -8.621094 C 4.335938 -8.558594 4.546875 -8.421875 4.746094 -8.285156 L 8.917969 -5.5625 C 8.96875 -5.539062 9.003906 -5.515625 9.054688 -5.503906 C 9.179688 -5.476562 9.289062 -5.5625 9.390625 -5.652344 C 10.707031 -6.769531 12.359375 -7.414062 13.699219 -8.507812 C 13.796875 -8.59375 13.898438 -8.683594 14.023438 -8.730469 C 14.195312 -8.792969 14.382812 -8.757812 14.570312 -8.730469 C 15.464844 -8.621094 16.382812 -8.632812 17.277344 -8.78125 C 17.363281 -8.792969 17.5 -8.78125 17.5 -8.695312 C 17.5 -8.644531 17.449219 -8.605469 17.402344 -8.582031 C 16.160156 -7.789062 14.902344 -6.992188 13.648438 -6.199219 C 12.769531 -5.625 11.875 -5.066406 10.992188 -4.496094 C 10.929688 -4.472656 10.867188 -4.421875 10.867188 -4.359375 C 10.867188 -4.199219 11.226562 -3.886719 14.269531 -2.085938 L 15.949219 -1.007812 C 16.195312 -0.84375 16.46875 -0.71875 16.730469 -0.570312 C 16.902344 -0.460938 17.101562 -0.371094 17.25 -0.222656 C 17.660156 0.160156 16.792969 0.0390625 16.628906 0.0234375 C 16.332031 0.0117188 16.046875 -0.0117188 15.761719 -0.0117188 C 15.203125 0 14.632812 0.148438 14.085938 0 C 13.710938 -0.113281 13.414062 -0.359375 13.101562 -0.570312 C 12.707031 -0.832031 12.308594 -1.105469 11.898438 -1.367188 L 9.589844 -2.917969 C 9.453125 -3.003906 9.316406 -3.105469 9.152344 -3.117188 C 8.90625 -3.15625 8.667969 -3.003906 8.445312 -2.867188 C 7.226562 -2.050781 6.011719 -1.230469 4.78125 -0.410156 C 4.558594 -0.261719 4.335938 -0.113281 4.085938 -0.0234375 C 3.578125 0.136719 3.054688 0.0625 2.535156 0.0117188 C 2.011719 -0.0507812 1.464844 0 0.957031 0.0859375 C 0.882812 0.0976562 0.707031 0.113281 0.671875 0.0390625 C 0.660156 0.0234375 0.660156 0.0117188 0.660156 0 Z M 0.660156 0 "/></g></g></g><g fill="#ed2323" fill-opacity="1"><g transform="translate(155.878075, 86.614389)"><g><path d="M 1.253906 -3.972656 C 1.265625 -3.488281 1.328125 -3.003906 1.503906 -2.546875 C 1.761719 -1.8125 2.308594 -1.203125 2.945312 -0.757812 C 3.589844 -0.308594 4.335938 -0.0390625 5.09375 0.148438 C 6.90625 0.582031 8.816406 0.472656 10.621094 0.0234375 C 11.601562 -0.222656 12.605469 -0.582031 13.226562 -1.378906 C 13.933594 -2.285156 13.972656 -3.527344 13.984375 -4.683594 C 13.996094 -5.824219 14.023438 -6.96875 14.035156 -8.109375 C 14.035156 -8.296875 14.023438 -8.519531 13.859375 -8.632812 C 13.761719 -8.695312 13.636719 -8.695312 13.527344 -8.695312 L 12.058594 -8.695312 C 11.9375 -8.695312 11.800781 -8.683594 11.710938 -8.582031 C 11.648438 -8.507812 11.648438 -8.394531 11.648438 -8.296875 C 11.664062 -7.066406 11.6875 -5.851562 11.699219 -4.621094 C 11.710938 -3.738281 11.6875 -2.757812 11.078125 -2.113281 C 10.644531 -1.640625 9.972656 -1.464844 9.339844 -1.367188 C 8.121094 -1.167969 6.878906 -1.191406 5.675781 -1.464844 C 5.214844 -1.566406 4.746094 -1.714844 4.371094 -2.023438 C 3.988281 -2.359375 3.75 -2.84375 3.652344 -3.351562 C 3.539062 -3.851562 3.539062 -4.371094 3.550781 -4.882812 C 3.550781 -6.035156 3.566406 -7.179688 3.578125 -8.332031 C 3.578125 -8.980469 2.96875 -8.667969 2.558594 -8.644531 C 2.234375 -8.621094 1.898438 -8.644531 1.578125 -8.707031 C 1.492188 -8.730469 1.402344 -8.742188 1.328125 -8.707031 C 1.203125 -8.644531 1.191406 -8.46875 1.203125 -8.320312 C 1.265625 -7.289062 1.292969 -6.246094 1.265625 -5.203125 C 1.253906 -4.792969 1.242188 -4.382812 1.253906 -3.972656 Z M 1.253906 -3.972656 "/></g></g></g><g fill="#ed2323" fill-opacity="1"><g transform="translate(171.664045, 86.614389)"><g><path d="M 13.972656 -0.496094 C 13.488281 -0.980469 13.003906 -1.464844 12.542969 -1.960938 C 12.308594 -2.199219 12.097656 -2.445312 11.875 -2.683594 C 11.648438 -2.894531 11.375 -3.054688 11.191406 -3.304688 C 11.164062 -3.339844 11.140625 -3.378906 11.152344 -3.414062 C 11.164062 -3.539062 11.75 -3.578125 11.859375 -3.601562 C 12.121094 -3.675781 12.394531 -3.761719 12.632812 -3.914062 C 12.816406 -4.023438 13.003906 -4.160156 13.164062 -4.320312 C 13.253906 -4.421875 13.574219 -4.695312 13.574219 -4.84375 C 14.070312 -5.6875 14.035156 -6.84375 13.402344 -7.601562 C 13.015625 -8.0625 12.433594 -8.347656 11.847656 -8.496094 C 11.253906 -8.644531 10.632812 -8.65625 10.023438 -8.667969 C 7.191406 -8.742188 4.347656 -8.742188 1.515625 -8.683594 C 1.429688 -8.683594 1.339844 -8.683594 1.292969 -8.621094 C 1.242188 -8.570312 1.242188 -8.484375 1.242188 -8.421875 L 1.242188 -3.960938 C 1.242188 -3.21875 1.242188 -2.472656 1.242188 -1.738281 L 1.242188 -0.621094 C 1.242188 -0.398438 1.066406 -0.0234375 1.378906 0.0625 C 1.515625 0.0976562 1.640625 0.0625 1.777344 0.0390625 C 2.234375 -0.0625 2.71875 -0.0507812 3.179688 0.0507812 C 3.265625 0.0742188 3.351562 0.0976562 3.429688 0.0742188 C 3.589844 0.0117188 3.613281 -0.199219 3.601562 -0.359375 C 3.601562 -0.871094 3.589844 -1.378906 3.578125 -1.875 C 3.566406 -2.136719 3.566406 -2.398438 3.550781 -2.65625 C 3.550781 -2.832031 3.550781 -2.992188 3.539062 -3.167969 C 3.539062 -3.21875 3.539062 -3.277344 3.578125 -3.316406 C 3.6875 -3.429688 4.148438 -3.339844 4.308594 -3.339844 C 4.59375 -3.339844 4.867188 -3.351562 5.15625 -3.351562 C 5.675781 -3.351562 6.199219 -3.351562 6.707031 -3.367188 L 7.675781 -3.367188 C 7.925781 -3.378906 8.171875 -3.378906 8.421875 -3.292969 C 8.78125 -3.179688 9.054688 -2.882812 9.300781 -2.597656 L 11.238281 -0.496094 C 11.402344 -0.324219 11.5625 -0.136719 11.785156 -0.0507812 C 11.972656 0.0234375 12.183594 0.0234375 12.394531 0.0234375 L 14.246094 0.0234375 C 14.296875 0.0234375 14.359375 0.0117188 14.371094 -0.0234375 C 14.382812 -0.0742188 14.34375 -0.0976562 14.320312 -0.136719 C 14.207031 -0.261719 14.085938 -0.371094 13.972656 -0.496094 Z M 7.578125 -4.96875 L 7.015625 -4.96875 C 5.960938 -4.980469 4.90625 -4.980469 3.851562 -4.980469 C 3.703125 -4.980469 3.578125 -5.019531 3.578125 -5.179688 C 3.578125 -5.5625 3.578125 -5.9375 3.566406 -6.320312 C 3.566406 -6.484375 3.453125 -6.957031 3.613281 -7.054688 C 3.6875 -7.117188 3.851562 -7.078125 3.949219 -7.078125 C 4.097656 -7.078125 4.246094 -7.054688 4.410156 -7.066406 L 5.054688 -7.066406 C 6.148438 -7.078125 7.226562 -7.066406 8.320312 -7.066406 C 9.003906 -7.066406 9.6875 -7.078125 10.371094 -6.96875 C 10.667969 -6.917969 10.980469 -6.84375 11.226562 -6.65625 C 11.476562 -6.484375 11.648438 -6.160156 11.574219 -5.863281 C 11.539062 -5.664062 11.375 -5.488281 11.203125 -5.378906 C 11.015625 -5.265625 10.816406 -5.203125 10.605469 -5.15625 C 9.636719 -4.929688 8.59375 -4.941406 7.578125 -4.96875 Z M 7.578125 -4.96875 "/></g></g></g><g fill="#ed2323" fill-opacity="1"><g transform="translate(187.238871, 86.614389)"><g><path d="M 10.941406 -8.644531 C 10.929688 -8.632812 10.917969 -8.621094 10.90625 -8.621094 C 10.792969 -8.558594 10.707031 -8.46875 10.632812 -8.371094 C 9.464844 -7.105469 8.308594 -5.835938 7.140625 -4.558594 C 6.980469 -4.382812 6.820312 -4.382812 6.65625 -4.570312 C 5.550781 -5.789062 4.457031 -7.003906 3.351562 -8.234375 C 3.179688 -8.433594 2.980469 -8.632812 2.71875 -8.695312 C 2.558594 -8.730469 2.398438 -8.707031 2.234375 -8.695312 C 1.761719 -8.644531 1.277344 -8.667969 0.808594 -8.769531 C 0.734375 -8.78125 0.660156 -8.792969 0.609375 -8.742188 C 0.507812 -8.644531 0.644531 -8.496094 0.757812 -8.433594 C 1.191406 -8.160156 1.453125 -7.738281 1.789062 -7.363281 C 2.160156 -6.96875 2.558594 -6.582031 2.929688 -6.171875 C 3.414062 -5.6875 3.863281 -5.167969 4.320312 -4.671875 C 4.546875 -4.421875 4.78125 -4.160156 5.019531 -3.914062 C 5.214844 -3.6875 5.453125 -3.464844 5.640625 -3.230469 C 5.761719 -3.054688 5.800781 -2.894531 5.789062 -2.695312 C 5.773438 -1.898438 5.75 -1.105469 5.738281 -0.308594 C 5.738281 -0.1875 5.75 -0.0234375 5.875 0.0117188 C 5.898438 0.0234375 5.9375 0.0234375 5.960938 0.0234375 C 6.59375 0.0117188 7.226562 0.0117188 7.863281 0.0117188 C 7.898438 0.0117188 7.949219 0.0117188 7.984375 -0.0117188 C 8.109375 -0.0625 8.121094 -0.222656 8.121094 -0.347656 C 8.097656 -1.054688 8.085938 -1.777344 8.074219 -2.484375 C 8.0625 -2.90625 8.171875 -3.203125 8.457031 -3.515625 L 11.996094 -7.390625 C 12.332031 -7.75 12.667969 -8.109375 13.054688 -8.410156 C 13.140625 -8.46875 13.238281 -8.570312 13.191406 -8.65625 C 13.152344 -8.730469 13.054688 -8.742188 12.964844 -8.742188 C 12.46875 -8.730469 11.972656 -8.730469 11.464844 -8.71875 C 11.289062 -8.71875 11.105469 -8.71875 10.941406 -8.644531 Z M 10.941406 -8.644531 "/></g></g></g><g fill="#ed2323" fill-opacity="1"><g transform="translate(201.658624, 86.614389)"><g/></g></g><g fill="#ed2323" fill-opacity="1"><g transform="translate(208.42758, 86.614389)"><g><path d="M 13.625 -6.035156 C 13.722656 -6.074219 13.785156 -6.183594 13.773438 -6.445312 C 13.761719 -6.894531 13.738281 -7.328125 13.722656 -7.773438 C 13.722656 -7.875 13.710938 -7.972656 13.675781 -8.0625 C 13.585938 -8.222656 13.238281 -8.296875 13.089844 -8.347656 C 12.890625 -8.421875 12.679688 -8.46875 12.46875 -8.53125 C 12.269531 -8.59375 12.058594 -8.621094 11.847656 -8.683594 C 11.214844 -8.832031 10.59375 -8.953125 9.949219 -9.003906 C 9.738281 -9.03125 9.527344 -9.015625 9.300781 -9.03125 C 9.089844 -9.042969 8.878906 -9.078125 8.65625 -9.078125 C 8.445312 -9.078125 8.234375 -9.054688 8.023438 -9.042969 C 6.347656 -8.96875 4.582031 -8.632812 3.105469 -7.8125 C 2.558594 -7.515625 2.023438 -7.078125 1.601562 -6.632812 C 1.453125 -6.472656 1.328125 -6.296875 1.203125 -6.136719 C 0.746094 -5.453125 0.472656 -4.546875 0.660156 -3.703125 C 0.707031 -3.503906 0.792969 -3.304688 0.882812 -3.105469 C 1.601562 -1.492188 3.277344 -0.660156 4.882812 -0.160156 C 5.078125 -0.0976562 5.277344 -0.0390625 5.488281 0.0117188 C 5.699219 0.0625 5.910156 0.0976562 6.125 0.136719 C 7.390625 0.386719 8.65625 0.433594 9.949219 0.324219 C 10.160156 0.296875 10.382812 0.308594 10.59375 0.285156 C 11.179688 0.199219 11.75 0.0625 12.308594 -0.113281 C 12.632812 -0.210938 13.449219 -0.335938 13.636719 -0.632812 C 13.675781 -0.683594 13.6875 -0.746094 13.6875 -0.808594 C 13.722656 -1.414062 13.824219 -2.136719 13.710938 -2.730469 C 13.511719 -2.683594 13.339844 -2.484375 13.152344 -2.359375 C 12.980469 -2.234375 12.804688 -2.097656 12.59375 -2 C 11.238281 -1.292969 9.664062 -1.042969 8.148438 -1.128906 C 6.457031 -1.230469 4.421875 -1.675781 3.378906 -3.140625 C 2.832031 -3.898438 2.820312 -4.792969 3.367188 -5.550781 C 4.882812 -7.6875 8.382812 -7.8125 10.679688 -7.351562 C 11.339844 -7.214844 12.011719 -7.003906 12.59375 -6.695312 C 12.792969 -6.582031 13.351562 -5.972656 13.625 -6.035156 Z M 13.625 -6.035156 "/></g></g></g><g fill="#ed2323" fill-opacity="1"><g transform="translate(223.29446, 86.614389)"><g><path d="M 0.359375 -0.0117188 C 0.410156 0.0390625 0.472656 0.0390625 0.535156 0.0507812 C 1.15625 0.0742188 1.839844 0.222656 2.433594 0.0234375 C 3.167969 -0.199219 3.019531 -1.378906 3.875 -1.378906 C 5.230469 -1.378906 6.582031 -1.355469 7.9375 -1.355469 C 8.605469 -1.355469 9.289062 -1.355469 9.960938 -1.378906 C 10.496094 -1.390625 11.164062 -1.539062 11.6875 -1.429688 C 12.234375 -1.304688 12.246094 -0.496094 12.632812 -0.175781 C 12.90625 0.0742188 13.328125 0.0742188 13.699219 0.0742188 C 14.070312 0.0625 14.457031 0.0507812 14.828125 0.0507812 C 14.878906 0.0507812 14.929688 0.0507812 14.964844 0.0234375 C 15.066406 -0.0507812 14.992188 -0.210938 14.917969 -0.308594 C 13.089844 -2.769531 11.375 -5.316406 9.800781 -7.949219 C 9.601562 -8.296875 9.351562 -8.667969 8.96875 -8.78125 C 8.78125 -8.84375 8.570312 -8.816406 8.371094 -8.804688 C 7.675781 -8.742188 6.285156 -8.917969 5.863281 -8.285156 C 4.273438 -5.886719 2.671875 -3.488281 1.082031 -1.105469 C 0.957031 -0.929688 0.160156 -0.25 0.359375 -0.0117188 Z M 4.867188 -3.21875 C 4.84375 -3.265625 4.832031 -3.304688 4.832031 -3.351562 C 4.84375 -3.453125 4.90625 -3.527344 4.96875 -3.613281 C 5.441406 -4.210938 5.898438 -4.832031 6.335938 -5.476562 C 6.558594 -5.8125 6.769531 -6.148438 6.980469 -6.484375 C 7.09375 -6.65625 7.402344 -7.425781 7.578125 -7.488281 C 7.972656 -7.636719 8.683594 -6.035156 8.878906 -5.714844 C 9.378906 -4.96875 9.898438 -4.234375 10.445312 -3.527344 C 10.507812 -3.453125 10.570312 -3.351562 10.558594 -3.265625 C 10.46875 -2.84375 9.191406 -3.179688 8.90625 -3.191406 C 7.773438 -3.292969 6.609375 -3.203125 5.476562 -3.054688 C 5.339844 -3.042969 5.203125 -3.019531 5.078125 -3.066406 C 4.992188 -3.09375 4.90625 -3.140625 4.867188 -3.21875 Z M 4.867188 -3.21875 "/></g></g></g><g fill="#ed2323" fill-opacity="1"><g transform="translate(239.192209, 86.614389)"><g><path d="M 13.972656 -0.496094 C 13.488281 -0.980469 13.003906 -1.464844 12.542969 -1.960938 C 12.308594 -2.199219 12.097656 -2.445312 11.875 -2.683594 C 11.648438 -2.894531 11.375 -3.054688 11.191406 -3.304688 C 11.164062 -3.339844 11.140625 -3.378906 11.152344 -3.414062 C 11.164062 -3.539062 11.75 -3.578125 11.859375 -3.601562 C 12.121094 -3.675781 12.394531 -3.761719 12.632812 -3.914062 C 12.816406 -4.023438 13.003906 -4.160156 13.164062 -4.320312 C 13.253906 -4.421875 13.574219 -4.695312 13.574219 -4.84375 C 14.070312 -5.6875 14.035156 -6.84375 13.402344 -7.601562 C 13.015625 -8.0625 12.433594 -8.347656 11.847656 -8.496094 C 11.253906 -8.644531 10.632812 -8.65625 10.023438 -8.667969 C 7.191406 -8.742188 4.347656 -8.742188 1.515625 -8.683594 C 1.429688 -8.683594 1.339844 -8.683594 1.292969 -8.621094 C 1.242188 -8.570312 1.242188 -8.484375 1.242188 -8.421875 L 1.242188 -3.960938 C 1.242188 -3.21875 1.242188 -2.472656 1.242188 -1.738281 L 1.242188 -0.621094 C 1.242188 -0.398438 1.066406 -0.0234375 1.378906 0.0625 C 1.515625 0.0976562 1.640625 0.0625 1.777344 0.0390625 C 2.234375 -0.0625 2.71875 -0.0507812 3.179688 0.0507812 C 3.265625 0.0742188 3.351562 0.0976562 3.429688 0.0742188 C 3.589844 0.0117188 3.613281 -0.199219 3.601562 -0.359375 C 3.601562 -0.871094 3.589844 -1.378906 3.578125 -1.875 C 3.566406 -2.136719 3.566406 -2.398438 3.550781 -2.65625 C 3.550781 -2.832031 3.550781 -2.992188 3.539062 -3.167969 C 3.539062 -3.21875 3.539062 -3.277344 3.578125 -3.316406 C 3.6875 -3.429688 4.148438 -3.339844 4.308594 -3.339844 C 4.59375 -3.339844 4.867188 -3.351562 5.15625 -3.351562 C 5.675781 -3.351562 6.199219 -3.351562 6.707031 -3.367188 L 7.675781 -3.367188 C 7.925781 -3.378906 8.171875 -3.378906 8.421875 -3.292969 C 8.78125 -3.179688 9.054688 -2.882812 9.300781 -2.597656 L 11.238281 -0.496094 C 11.402344 -0.324219 11.5625 -0.136719 11.785156 -0.0507812 C 11.972656 0.0234375 12.183594 0.0234375 12.394531 0.0234375 L 14.246094 0.0234375 C 14.296875 0.0234375 14.359375 0.0117188 14.371094 -0.0234375 C 14.382812 -0.0742188 14.34375 -0.0976562 14.320312 -0.136719 C 14.207031 -0.261719 14.085938 -0.371094 13.972656 -0.496094 Z M 7.578125 -4.96875 L 7.015625 -4.96875 C 5.960938 -4.980469 4.90625 -4.980469 3.851562 -4.980469 C 3.703125 -4.980469 3.578125 -5.019531 3.578125 -5.179688 C 3.578125 -5.5625 3.578125 -5.9375 3.566406 -6.320312 C 3.566406 -6.484375 3.453125 -6.957031 3.613281 -7.054688 C 3.6875 -7.117188 3.851562 -7.078125 3.949219 -7.078125 C 4.097656 -7.078125 4.246094 -7.054688 4.410156 -7.066406 L 5.054688 -7.066406 C 6.148438 -7.078125 7.226562 -7.066406 8.320312 -7.066406 C 9.003906 -7.066406 9.6875 -7.078125 10.371094 -6.96875 C 10.667969 -6.917969 10.980469 -6.84375 11.226562 -6.65625 C 11.476562 -6.484375 11.648438 -6.160156 11.574219 -5.863281 C 11.539062 -5.664062 11.375 -5.488281 11.203125 -5.378906 C 11.015625 -5.265625 10.816406 -5.203125 10.605469 -5.15625 C 9.636719 -4.929688 8.59375 -4.941406 7.578125 -4.96875 Z M 7.578125 -4.96875 "/></g></g></g><g fill="#ed2323" fill-opacity="1"><g transform="translate(254.767035, 86.614389)"><g><path d="M 0.820312 -0.621094 C 0.84375 -0.582031 0.894531 -0.558594 0.945312 -0.535156 C 2.507812 0.199219 4.296875 0.335938 6.023438 0.398438 C 7.960938 0.472656 9.949219 0.460938 11.773438 -0.199219 C 12.234375 -0.371094 12.707031 -0.597656 12.992188 -0.992188 C 13.191406 -1.253906 13.289062 -1.578125 13.363281 -1.886719 C 13.449219 -2.234375 13.5 -2.597656 13.4375 -2.957031 C 13.339844 -3.527344 12.917969 -4.011719 12.421875 -4.320312 C 11.910156 -4.621094 11.328125 -4.769531 10.753906 -4.855469 C 8.484375 -5.214844 6.136719 -4.882812 3.875 -5.316406 C 3.390625 -5.414062 2.820312 -5.640625 2.757812 -6.136719 C 2.71875 -6.421875 2.894531 -6.707031 3.128906 -6.878906 C 3.367188 -7.054688 3.664062 -7.140625 3.949219 -7.203125 C 4.992188 -7.441406 6.074219 -7.515625 7.152344 -7.5 C 7.6875 -7.5 8.222656 -7.476562 8.757812 -7.425781 C 8.980469 -7.414062 9.191406 -7.453125 9.402344 -7.414062 C 9.625 -7.378906 9.835938 -7.304688 10.046875 -7.242188 C 10.40625 -7.167969 10.753906 -7.066406 11.089844 -6.957031 C 11.75 -6.71875 12.382812 -6.394531 12.878906 -5.898438 C 12.878906 -6.507812 12.890625 -7.117188 12.90625 -7.726562 C 12.90625 -7.824219 12.90625 -7.910156 12.867188 -8 C 12.816406 -8.097656 12.707031 -8.148438 12.605469 -8.195312 C 11.054688 -8.929688 9.277344 -9.03125 7.5625 -9.054688 C 5.949219 -9.078125 4.308594 -9.03125 2.757812 -8.605469 C 2.074219 -8.421875 1.402344 -8.148438 0.929688 -7.613281 C 0.335938 -6.929688 0.222656 -5.863281 0.683594 -5.066406 C 1.019531 -4.484375 1.601562 -4.085938 2.222656 -3.863281 C 2.855469 -3.625 3.527344 -3.566406 4.199219 -3.515625 C 5.988281 -3.402344 7.789062 -3.464844 9.589844 -3.328125 C 9.949219 -3.292969 10.332031 -3.253906 10.644531 -3.066406 C 10.96875 -2.882812 11.203125 -2.507812 11.128906 -2.148438 C 11.015625 -1.703125 10.507812 -1.492188 10.058594 -1.390625 C 9.203125 -1.191406 8.308594 -1.15625 7.425781 -1.128906 C 6.257812 -1.117188 5.078125 -1.144531 3.925781 -1.367188 C 2.769531 -1.589844 1.640625 -2.035156 0.71875 -2.769531 C 0.695312 -2.097656 0.707031 -1.441406 0.757812 -0.78125 C 0.769531 -0.734375 0.769531 -0.683594 0.792969 -0.644531 C 0.808594 -0.632812 0.808594 -0.621094 0.820312 -0.621094 Z M 0.820312 -0.621094 "/></g></g></g></svg>