<svg xmlns="http://www.w3.org/2000/svg" xmlns:xlink="http://www.w3.org/1999/xlink" width="501" zoomAndPan="magnify" viewBox="0 0 375.75 112.499997" height="150" preserveAspectRatio="xMidYMid meet" version="1.0"><defs><clipPath id="3e24ad075c"><path d="M 95.207031 40 L 276 40 L 276 48 L 95.207031 48 Z M 95.207031 40 " clip-rule="nonzero"/></clipPath><clipPath id="b8e5b1b97a"><path d="M 60.730469 11.777344 L 302.441406 11.777344 L 302.441406 48.074219 L 60.730469 48.074219 Z M 60.730469 11.777344 " clip-rule="nonzero"/></clipPath></defs><g clip-path="url(#3e24ad075c)"><path fill="#000000" d="M 103.699219 46.515625 C 110.261719 46.929688 116.8125 47.328125 123.363281 47.671875 C 123.921875 47.414062 124.753906 47.25 125.992188 47.167969 C 159.664062 45.429688 197.417969 44.464844 275.625 40.359375 C 262.035156 39.4375 197.777344 41.730469 157.570312 43 C 138.265625 43.613281 118.949219 44.425781 99.660156 45.609375 C 99.308594 45.617188 97.378906 45.796875 95.234375 46.089844 C 98.070312 46.183594 100.898438 46.328125 103.699219 46.515625 Z M 103.699219 46.515625 " fill-opacity="1" fill-rule="nonzero"/></g><g clip-path="url(#b8e5b1b97a)"><path fill="#ed2323" d="M 301.960938 47.367188 C 301.539062 46.222656 301.109375 45.105469 300.460938 44.089844 C 301.121094 43.117188 301.386719 42.039062 301.296875 40.710938 C 301.261719 40.335938 301.195312 39.96875 301.101562 39.605469 C 300.925781 38.847656 300.695312 37.804688 301.042969 37.449219 L 301.078125 37.402344 C 301.222656 37.25 301.320312 37.070312 301.375 36.863281 C 301.386719 36.78125 301.40625 36.703125 301.414062 36.628906 L 301.414062 36.527344 C 301.386719 34.152344 300.84375 32.613281 298.140625 31.722656 C 296.429688 31.164062 294.425781 31.15625 292.652344 31.148438 L 291.929688 31.148438 C 289.34375 31.117188 286.757812 30.988281 284.296875 30.769531 C 282.625 30.492188 280.9375 29.898438 279.304688 29.332031 C 278.773438 29.140625 278.242188 28.957031 277.71875 28.785156 C 276.070312 28.242188 274.414062 27.6875 272.765625 27.140625 C 269.996094 26.222656 267.121094 25.265625 264.285156 24.34375 C 254.132812 21.054688 243.277344 17.675781 232.140625 15.703125 C 211.957031 11.734375 192.367188 10.910156 173.933594 13.253906 C 155.851562 15.550781 139.71875 24.132812 124.125 32.425781 L 121.105469 34.03125 C 111.089844 34.074219 98.046875 34.59375 85.738281 38.191406 C 78.3125 40.359375 70.671875 43.34375 63.007812 47.074219 L 60.949219 48.074219 L 66.953125 48.058594 L 67.046875 48.019531 C 72.085938 45.828125 80.035156 42.707031 85.5 41.003906 C 97.5625 37.226562 110.433594 36.6875 121.425781 36.648438 C 121.632812 36.652344 121.835938 36.605469 122.023438 36.507812 L 122.0625 36.484375 C 123.191406 35.886719 124.3125 35.296875 125.433594 34.695312 C 140.558594 26.648438 156.195312 18.332031 173.609375 15.929688 C 191.585938 13.449219 211.074219 14.230469 231.546875 18.257812 C 242.472656 20.191406 253.359375 23.574219 263.5625 26.863281 C 266.667969 27.863281 269.808594 28.90625 272.847656 29.921875 L 276.519531 31.140625 L 278.234375 31.742188 C 280.046875 32.375 281.929688 33.039062 283.832031 33.339844 L 283.929688 33.351562 L 284.070312 33.375 C 286.65625 33.613281 289.496094 33.746094 292.757812 33.773438 C 294.34375 33.792969 295.917969 33.953125 297.476562 34.257812 C 298.105469 34.371094 298.421875 34.597656 298.589844 34.9375 C 294.96875 34.949219 291.453125 35.722656 288.457031 36.488281 L 287.617188 36.703125 C 285.359375 37.265625 282.796875 37.90625 280.792969 39.132812 C 280.402344 39.371094 280.179688 39.757812 280.171875 40.15625 C 280.15625 40.296875 280.164062 40.433594 280.191406 40.570312 C 281.105469 45.050781 285.976562 45.390625 287.574219 45.496094 C 291.386719 45.761719 294.949219 45.6875 298.15625 45.277344 C 298.761719 46.101562 299.167969 47.015625 299.457031 47.746094 L 299.585938 48.074219 L 302.222656 48.074219 Z M 297.867188 42.6875 C 295.339844 43 292.710938 43 290.011719 42.964844 L 289.429688 42.964844 C 287.046875 42.953125 284.121094 42.933594 283.050781 40.910156 C 284.367188 40.296875 285.875 39.898438 287.332031 39.511719 L 288.476562 39.207031 C 292.328125 38.132812 295.492188 37.613281 298.351562 37.578125 C 298.316406 38.191406 298.421875 38.847656 298.523438 39.496094 C 298.777344 41.097656 298.863281 42.125 297.867188 42.6875 Z M 297.867188 42.6875 " fill-opacity="1" fill-rule="nonzero"/></g><path fill="#ed2323" d="M 258.804688 34.226562 C 258.804688 34.226562 256.660156 35.050781 255.726562 35.238281 C 254.152344 35.535156 248.769531 36.148438 248.769531 36.148438 C 254.183594 36.613281 277.152344 35.175781 276.148438 35.175781 C 270.722656 35.175781 263.027344 34.585938 258.804688 34.226562 Z M 258.804688 34.226562 " fill-opacity="1" fill-rule="nonzero"/><path fill="#ed2323" d="M 260.21875 29.390625 C 261.074219 28.511719 260.242188 28.027344 260.007812 27.945312 C 237.574219 20.371094 213.214844 16.222656 189.425781 16.609375 C 187.453125 16.644531 185.476562 16.703125 183.515625 16.796875 C 168.832031 17.515625 154.496094 22.097656 141.378906 28.847656 L 141.351562 28.847656 C 141.101562 28.972656 140.847656 29.105469 140.609375 29.238281 C 136.191406 31.558594 131.902344 34.109375 127.75 36.886719 C 126.648438 37.695312 126.878906 38.300781 128.097656 38.460938 C 129.464844 38.570312 131.605469 38.519531 133.3125 38.535156 C 135.457031 38.566406 144.003906 38.410156 152.847656 38.226562 C 160.535156 38.066406 168.4375 37.886719 172.546875 37.753906 C 186.5625 37.320312 200.550781 36.875 214.578125 36.648438 C 222.175781 36.527344 229.773438 36.367188 237.359375 35.957031 C 242.015625 35.710938 247.203125 35.730469 251.679688 34.265625 C 254.914062 33.265625 257.824219 31.835938 260.21875 29.390625 Z M 130.320312 37.074219 C 132.484375 35.683594 134.691406 34.34375 136.9375 33.054688 C 136.480469 34.238281 136.480469 35.558594 137.164062 36.949219 C 134.914062 37.023438 132.589844 37.167969 130.320312 37.074219 Z M 183.921875 35.703125 C 175.703125 35.988281 167.476562 36.34375 159.25 36.542969 L 152.820312 36.679688 L 147.75 36.773438 C 148.988281 34.527344 148.929688 32.726562 148.300781 31.410156 C 147.570312 29.855469 146.074219 28.980469 145.011719 28.804688 C 157.101562 22.972656 170.128906 19.089844 183.503906 18.375 C 185.476562 18.273438 187.46875 18.199219 189.453125 18.160156 C 186.898438 23.6875 185.375 29.820312 183.921875 35.703125 Z M 191.96875 35.738281 L 190.378906 35.753906 C 190.796875 31.242188 192.542969 24.238281 193.5625 19.824219 C 193.5625 19.824219 192.371094 31.367188 191.96875 35.738281 Z M 230.214844 34.695312 C 220.421875 35.042969 210.625 35.136719 200.835938 35.257812 L 198.109375 35.308594 C 198.167969 29.605469 198.644531 23.914062 198.980469 18.226562 C 208.019531 18.539062 216.996094 19.457031 225.910156 20.976562 C 225.925781 20.996094 225.949219 21.015625 225.96875 21.03125 C 230.601562 25.050781 234.890625 29.578125 238.847656 34.300781 C 235.96875 34.476562 233.089844 34.59375 230.214844 34.695312 Z M 243.152344 33.992188 C 242.367188 34.058594 241.570312 34.113281 240.773438 34.171875 C 237.089844 29.710938 233.109375 25.390625 228.828125 21.476562 C 238.828125 23.316406 248.65625 25.839844 258.316406 29.039062 C 256.28125 30.828125 253.90625 31.929688 251.273438 32.746094 C 248.640625 33.566406 245.847656 33.761719 243.152344 33.992188 Z M 243.152344 33.992188 " fill-opacity="1" fill-rule="nonzero"/><path fill="#000000" d="M 83.683594 79.3125 C 93.589844 79.3125 97.574219 75.359375 98.304688 70.714844 L 94.25 70.714844 C 93.441406 73.566406 90.445312 75.652344 83.683594 75.652344 C 75.75 75.652344 72.644531 72.652344 72.644531 68.300781 L 72.644531 67.53125 C 72.644531 63.175781 75.75 60.175781 83.683594 60.175781 C 89.75 60.175781 93.84375 62.332031 94.285156 64.894531 L 98.34375 64.894531 C 98.011719 60.503906 92.894531 56.515625 83.683594 56.515625 C 72.390625 56.515625 68.84375 61.746094 68.84375 67.53125 L 68.84375 68.300781 C 68.84375 74.078125 72.390625 79.3125 83.683594 79.3125 Z M 83.683594 79.3125 " fill-opacity="1" fill-rule="nonzero"/><path fill="#000000" d="M 128.785156 78.945312 L 133.058594 78.945312 L 121.070312 57.101562 L 121.109375 56.992188 L 116.722656 56.992188 L 116.796875 57.101562 L 104.765625 78.945312 L 109.046875 78.945312 L 111.203125 75.03125 L 126.628906 75.03125 Z M 113.214844 71.371094 L 118.914062 60.980469 L 124.617188 71.371094 Z M 113.214844 71.371094 " fill-opacity="1" fill-rule="nonzero"/><path fill="#000000" d="M 166.941406 63.394531 L 166.941406 62.992188 C 166.941406 59.042969 164.382812 56.992188 160.105469 56.992188 L 140.992188 56.992188 L 140.992188 78.945312 L 144.972656 78.945312 L 144.972656 70.457031 L 158.570312 70.457031 C 162.265625 70.457031 162.265625 72.726562 162.265625 74.445312 L 162.265625 76.894531 C 162.265625 77.554688 162.300781 78.289062 162.410156 78.945312 L 166.6875 78.945312 C 166.574219 78.289062 166.5 77.554688 166.5 76.75 L 166.5 74.152344 C 166.5 71.882812 165.589844 69.90625 163.46875 68.738281 C 165.550781 68.078125 166.941406 66.578125 166.941406 63.394531 Z M 144.972656 66.542969 L 144.972656 60.652344 L 160.105469 60.652344 C 162.59375 60.652344 163.140625 61.933594 163.140625 62.992188 L 163.140625 63.394531 C 163.140625 65.117188 162.191406 66.542969 160.105469 66.542969 Z M 144.972656 66.542969 " fill-opacity="1" fill-rule="nonzero"/><path fill="#000000" d="M 218.148438 56.992188 L 218.148438 66.398438 L 198.992188 66.398438 L 198.992188 56.992188 L 195.265625 56.992188 L 195.265625 78.945312 L 198.992188 78.945312 L 198.992188 69.542969 L 218.148438 69.542969 L 218.148438 78.945312 L 221.875 78.945312 L 221.875 56.992188 Z M 218.148438 56.992188 " fill-opacity="1" fill-rule="nonzero"/><path fill="#000000" d="M 246.140625 79.3125 C 257.617188 79.3125 259.699219 73.824219 259.699219 68.261719 L 259.699219 57.066406 L 255.644531 57.066406 L 255.464844 68.773438 C 255.464844 72.835938 253.011719 75.394531 246.140625 75.394531 C 239.488281 75.394531 236.816406 72.652344 236.816406 68.773438 L 236.816406 57.066406 L 232.761719 57.066406 L 232.582031 68.773438 C 232.582031 74.078125 234.847656 79.3125 246.140625 79.3125 Z M 246.140625 79.3125 " fill-opacity="1" fill-rule="nonzero"/><path fill="#000000" d="M 270.628906 78.945312 L 284.007812 78.945312 C 289.777344 78.945312 293.871094 76.75 293.871094 72.25 L 293.871094 71.703125 C 293.871094 68.226562 291.242188 67.824219 290.914062 67.53125 C 291.460938 67.273438 293.398438 66.429688 293.398438 62.992188 L 293.398438 62.699219 C 293.398438 58.636719 289.816406 56.992188 285.832031 56.992188 L 270.628906 56.992188 Z M 274.355469 65.515625 L 274.355469 60.652344 L 285.832031 60.652344 C 288.722656 60.652344 289.597656 61.566406 289.597656 62.699219 L 289.597656 62.992188 C 289.597656 65.042969 288.5 65.515625 285.832031 65.515625 Z M 274.355469 75.289062 L 274.355469 69.433594 L 284.007812 69.433594 C 288.101562 69.433594 290.070312 69.507812 290.070312 71.703125 L 290.070312 72.25 C 290.070312 73.457031 288.535156 75.289062 284.007812 75.289062 Z M 274.355469 75.289062 " fill-opacity="1" fill-rule="nonzero"/><path fill="#ed2323" d="M 97.574219 99.9375 C 97.441406 99.816406 97.480469 99.671875 97.519531 99.503906 C 97.597656 99.214844 97.574219 98.902344 97.574219 98.601562 C 97.585938 97.371094 97.585938 96.128906 97.585938 94.882812 C 97.585938 94.1875 97.609375 93.507812 97.609375 92.828125 C 97.609375 92.472656 97.609375 92.121094 97.585938 91.765625 C 97.574219 91.488281 97.414062 91.136719 97.507812 90.863281 C 97.597656 90.613281 97.886719 90.679688 98.085938 90.71875 C 98.460938 90.769531 98.839844 90.796875 99.21875 90.769531 C 99.375 90.769531 99.535156 90.742188 99.691406 90.703125 C 99.847656 90.664062 100.03125 90.71875 100.082031 90.886719 C 100.097656 90.980469 100.082031 91.070312 100.070312 91.164062 C 99.992188 91.597656 99.992188 92.027344 99.992188 92.472656 C 99.980469 93.339844 99.992188 94.226562 100.003906 95.105469 C 100.019531 95.550781 100.019531 96.007812 100.019531 96.464844 C 100.019531 96.886719 99.964844 97.292969 99.941406 97.707031 C 99.925781 97.828125 99.925781 97.960938 100.019531 98.050781 C 100.191406 98.207031 100.449219 98.0625 100.632812 98.027344 C 100.894531 97.972656 101.167969 98.027344 101.433594 98.027344 C 102.476562 98.0625 103.523438 98.027344 104.570312 98.027344 C 105.65625 98.027344 106.738281 98.027344 107.828125 98.011719 C 108.179688 98.011719 108.535156 97.996094 108.886719 97.996094 C 109.230469 97.996094 109.230469 98.050781 109.566406 98.050781 C 109.777344 98.050781 109.984375 97.90625 110.183594 97.960938 C 110.417969 98.027344 110.378906 98.363281 110.351562 98.535156 C 110.296875 98.863281 110.207031 99.164062 110.285156 99.492188 C 110.3125 99.570312 110.339844 99.648438 110.339844 99.738281 C 110.351562 100.003906 110.078125 100.027344 109.882812 100.003906 C 109.007812 99.871094 108.144531 99.910156 107.265625 99.9375 C 105.121094 99.988281 102.964844 99.9375 100.816406 99.9375 C 100.097656 99.949219 99.363281 99.9375 98.644531 99.910156 C 98.382812 99.894531 98.144531 100.054688 97.886719 100.054688 C 97.78125 100.054688 97.664062 100.015625 97.574219 99.9375 Z M 97.574219 99.9375 " fill-opacity="1" fill-rule="nonzero"/><path fill="#ed2323" d="M 112.835938 95.75 C 112.847656 96.257812 112.914062 96.769531 113.101562 97.25 C 113.371094 98.027344 113.949219 98.667969 114.617188 99.136719 C 115.296875 99.609375 116.082031 99.894531 116.882812 100.09375 C 118.789062 100.550781 120.800781 100.433594 122.703125 99.960938 C 123.734375 99.703125 124.792969 99.324219 125.445312 98.484375 C 126.191406 97.527344 126.234375 96.21875 126.246094 95 C 126.257812 93.796875 126.285156 92.589844 126.296875 91.386719 C 126.296875 91.1875 126.285156 90.953125 126.113281 90.835938 C 126.011719 90.769531 125.878906 90.769531 125.765625 90.769531 L 124.21875 90.769531 C 124.089844 90.769531 123.945312 90.78125 123.851562 90.886719 C 123.785156 90.964844 123.785156 91.085938 123.785156 91.1875 C 123.800781 92.484375 123.824219 93.765625 123.839844 95.0625 C 123.851562 95.996094 123.824219 97.027344 123.183594 97.707031 C 122.726562 98.207031 122.019531 98.390625 121.351562 98.496094 C 120.070312 98.707031 118.761719 98.679688 117.496094 98.390625 C 117.007812 98.285156 116.515625 98.128906 116.121094 97.804688 C 115.71875 97.449219 115.464844 96.9375 115.363281 96.402344 C 115.242188 95.875 115.242188 95.328125 115.257812 94.789062 C 115.257812 93.574219 115.273438 92.367188 115.285156 91.152344 C 115.285156 90.46875 114.644531 90.796875 114.210938 90.820312 C 113.871094 90.847656 113.515625 90.820312 113.179688 90.757812 C 113.089844 90.730469 112.992188 90.71875 112.914062 90.757812 C 112.785156 90.820312 112.769531 91.007812 112.785156 91.164062 C 112.847656 92.25 112.878906 93.351562 112.847656 94.449219 C 112.835938 94.882812 112.824219 95.316406 112.835938 95.75 Z M 112.835938 95.75 " fill-opacity="1" fill-rule="nonzero"/><path fill="#ed2323" d="M 128.835938 99.9375 C 128.796875 99.804688 129.042969 99.738281 129.152344 99.671875 L 130.25 99.003906 C 130.96875 98.546875 131.6875 98.078125 132.421875 97.617188 C 133.742188 96.832031 136.171875 95.550781 135.480469 95.078125 L 134.578125 94.488281 C 133.964844 94.097656 133.347656 93.6875 132.734375 93.296875 L 129.085938 90.925781 C 128.835938 90.757812 129.164062 90.730469 129.292969 90.71875 C 130.105469 90.640625 130.941406 90.757812 131.753906 90.769531 C 131.988281 90.769531 132.234375 90.78125 132.457031 90.847656 C 132.710938 90.914062 132.929688 91.058594 133.140625 91.199219 L 137.535156 94.070312 C 137.589844 94.097656 137.625 94.121094 137.679688 94.132812 C 137.8125 94.164062 137.925781 94.070312 138.03125 93.976562 C 139.417969 92.800781 141.160156 92.121094 142.570312 90.964844 C 142.671875 90.875 142.78125 90.78125 142.914062 90.730469 C 143.09375 90.664062 143.289062 90.703125 143.488281 90.730469 C 144.429688 90.847656 145.398438 90.835938 146.339844 90.679688 C 146.429688 90.664062 146.574219 90.679688 146.574219 90.769531 C 146.574219 90.820312 146.519531 90.863281 146.472656 90.886719 C 145.164062 91.722656 143.835938 92.5625 142.515625 93.402344 C 141.589844 94.007812 140.648438 94.59375 139.71875 95.195312 C 139.652344 95.222656 139.589844 95.273438 139.589844 95.339844 C 139.589844 95.507812 139.964844 95.839844 143.171875 97.738281 L 144.941406 98.875 C 145.199219 99.046875 145.488281 99.179688 145.761719 99.335938 C 145.945312 99.449219 146.152344 99.546875 146.308594 99.703125 C 146.742188 100.105469 145.828125 99.976562 145.65625 99.960938 C 145.34375 99.949219 145.042969 99.925781 144.742188 99.925781 C 144.15625 99.9375 143.554688 100.09375 142.976562 99.9375 C 142.582031 99.816406 142.269531 99.558594 141.941406 99.335938 C 141.527344 99.058594 141.105469 98.769531 140.675781 98.496094 L 138.242188 96.859375 C 138.097656 96.769531 137.953125 96.664062 137.78125 96.648438 C 137.523438 96.609375 137.273438 96.769531 137.039062 96.914062 C 135.753906 97.773438 134.472656 98.640625 133.179688 99.503906 C 132.945312 99.660156 132.710938 99.816406 132.445312 99.910156 C 131.910156 100.082031 131.359375 100.003906 130.8125 99.949219 C 130.261719 99.882812 129.683594 99.9375 129.152344 100.027344 C 129.074219 100.039062 128.886719 100.054688 128.851562 99.976562 C 128.835938 99.960938 128.835938 99.949219 128.835938 99.9375 Z M 128.835938 99.9375 " fill-opacity="1" fill-rule="nonzero"/><path fill="#ed2323" d="M 149.058594 95.75 C 149.070312 96.257812 149.136719 96.769531 149.320312 97.25 C 149.59375 98.027344 150.167969 98.667969 150.839844 99.136719 C 151.519531 99.609375 152.304688 99.894531 153.101562 100.09375 C 155.011719 100.550781 157.023438 100.433594 158.921875 99.960938 C 159.957031 99.703125 161.015625 99.324219 161.667969 98.484375 C 162.414062 97.527344 162.453125 96.21875 162.464844 95 C 162.476562 93.796875 162.507812 92.589844 162.519531 91.386719 C 162.519531 91.1875 162.507812 90.953125 162.335938 90.835938 C 162.230469 90.769531 162.101562 90.769531 161.984375 90.769531 L 160.4375 90.769531 C 160.308594 90.769531 160.167969 90.78125 160.070312 90.886719 C 160.003906 90.964844 160.003906 91.085938 160.003906 91.1875 C 160.023438 92.484375 160.046875 93.765625 160.058594 95.0625 C 160.070312 95.996094 160.046875 97.027344 159.40625 97.707031 C 158.949219 98.207031 158.242188 98.390625 157.574219 98.496094 C 156.289062 98.707031 154.984375 98.679688 153.714844 98.390625 C 153.230469 98.285156 152.734375 98.128906 152.339844 97.804688 C 151.9375 97.449219 151.6875 96.9375 151.585938 96.402344 C 151.464844 95.875 151.464844 95.328125 151.476562 94.789062 C 151.476562 93.574219 151.492188 92.367188 151.507812 91.152344 C 151.507812 90.46875 150.863281 90.796875 150.433594 90.820312 C 150.089844 90.847656 149.738281 90.820312 149.398438 90.757812 C 149.308594 90.730469 149.214844 90.71875 149.136719 90.757812 C 149.003906 90.820312 148.992188 91.007812 149.003906 91.164062 C 149.070312 92.25 149.097656 93.351562 149.070312 94.449219 C 149.058594 94.882812 149.046875 95.316406 149.058594 95.75 Z M 149.058594 95.75 " fill-opacity="1" fill-rule="nonzero"/><path fill="#ed2323" d="M 179.078125 99.414062 C 178.570312 98.902344 178.058594 98.390625 177.574219 97.867188 C 177.328125 97.617188 177.105469 97.359375 176.871094 97.105469 C 176.632812 96.886719 176.34375 96.714844 176.152344 96.453125 C 176.121094 96.414062 176.097656 96.375 176.109375 96.335938 C 176.121094 96.207031 176.738281 96.164062 176.855469 96.140625 C 177.128906 96.0625 177.417969 95.96875 177.667969 95.808594 C 177.863281 95.695312 178.058594 95.550781 178.226562 95.382812 C 178.324219 95.273438 178.660156 94.984375 178.660156 94.828125 C 179.183594 93.941406 179.144531 92.722656 178.480469 91.921875 C 178.070312 91.4375 177.457031 91.136719 176.839844 90.980469 C 176.214844 90.820312 175.5625 90.808594 174.921875 90.796875 C 171.9375 90.71875 168.941406 90.71875 165.960938 90.78125 C 165.871094 90.78125 165.773438 90.78125 165.726562 90.847656 C 165.671875 90.902344 165.671875 90.992188 165.671875 91.058594 L 165.671875 95.761719 C 165.671875 96.542969 165.671875 97.328125 165.671875 98.105469 L 165.671875 99.28125 C 165.671875 99.515625 165.488281 99.910156 165.816406 100.003906 C 165.960938 100.039062 166.089844 100.003906 166.234375 99.976562 C 166.71875 99.871094 167.226562 99.882812 167.710938 99.988281 C 167.804688 100.015625 167.894531 100.039062 167.976562 100.015625 C 168.144531 99.949219 168.167969 99.726562 168.15625 99.558594 C 168.15625 99.019531 168.144531 98.484375 168.132812 97.960938 C 168.121094 97.683594 168.121094 97.40625 168.101562 97.136719 C 168.101562 96.949219 168.101562 96.78125 168.089844 96.597656 C 168.089844 96.542969 168.089844 96.480469 168.132812 96.441406 C 168.246094 96.320312 168.734375 96.414062 168.902344 96.414062 C 169.203125 96.414062 169.488281 96.402344 169.792969 96.402344 C 170.339844 96.402344 170.894531 96.402344 171.425781 96.386719 L 172.449219 96.386719 C 172.710938 96.375 172.96875 96.375 173.234375 96.464844 C 173.613281 96.585938 173.898438 96.898438 174.160156 97.199219 L 176.199219 99.414062 C 176.371094 99.59375 176.542969 99.792969 176.777344 99.882812 C 176.972656 99.960938 177.195312 99.960938 177.417969 99.960938 L 179.367188 99.960938 C 179.421875 99.960938 179.488281 99.949219 179.5 99.910156 C 179.511719 99.859375 179.46875 99.832031 179.445312 99.792969 C 179.328125 99.660156 179.199219 99.546875 179.078125 99.414062 Z M 172.34375 94.699219 L 171.753906 94.699219 C 170.640625 94.683594 169.53125 94.683594 168.421875 94.683594 C 168.265625 94.683594 168.132812 94.644531 168.132812 94.476562 C 168.132812 94.070312 168.132812 93.675781 168.121094 93.273438 C 168.121094 93.101562 168 92.601562 168.167969 92.5 C 168.246094 92.433594 168.421875 92.472656 168.523438 92.472656 C 168.679688 92.472656 168.835938 92.5 169.007812 92.484375 L 169.6875 92.484375 C 170.839844 92.472656 171.976562 92.484375 173.125 92.484375 C 173.847656 92.484375 174.566406 92.472656 175.285156 92.589844 C 175.597656 92.644531 175.929688 92.722656 176.1875 92.917969 C 176.449219 93.101562 176.632812 93.441406 176.554688 93.753906 C 176.515625 93.964844 176.34375 94.148438 176.164062 94.265625 C 175.964844 94.386719 175.753906 94.449219 175.535156 94.5 C 174.511719 94.738281 173.414062 94.726562 172.34375 94.699219 Z M 172.34375 94.699219 " fill-opacity="1" fill-rule="nonzero"/><path fill="#ed2323" d="M 192.289062 90.820312 C 192.277344 90.835938 192.265625 90.847656 192.253906 90.847656 C 192.132812 90.914062 192.042969 91.007812 191.964844 91.109375 C 190.734375 92.445312 189.519531 93.785156 188.289062 95.128906 C 188.121094 95.316406 187.949219 95.316406 187.777344 95.117188 C 186.613281 93.832031 185.460938 92.550781 184.296875 91.253906 C 184.117188 91.042969 183.90625 90.835938 183.628906 90.769531 C 183.460938 90.730469 183.292969 90.757812 183.121094 90.769531 C 182.621094 90.820312 182.113281 90.796875 181.617188 90.691406 C 181.539062 90.679688 181.460938 90.664062 181.410156 90.71875 C 181.300781 90.820312 181.445312 90.980469 181.566406 91.042969 C 182.023438 91.332031 182.296875 91.777344 182.652344 92.171875 C 183.042969 92.589844 183.460938 92.996094 183.851562 93.429688 C 184.363281 93.941406 184.835938 94.488281 185.316406 95.011719 C 185.554688 95.273438 185.804688 95.550781 186.054688 95.808594 C 186.257812 96.046875 186.511719 96.285156 186.707031 96.53125 C 186.835938 96.714844 186.875 96.886719 186.863281 97.09375 C 186.847656 97.933594 186.824219 98.769531 186.8125 99.609375 C 186.8125 99.738281 186.824219 99.910156 186.953125 99.949219 C 186.980469 99.960938 187.019531 99.960938 187.046875 99.960938 C 187.710938 99.949219 188.378906 99.949219 189.050781 99.949219 C 189.085938 99.949219 189.140625 99.949219 189.175781 99.925781 C 189.308594 99.871094 189.320312 99.703125 189.320312 99.570312 C 189.296875 98.824219 189.285156 98.0625 189.269531 97.316406 C 189.257812 96.871094 189.375 96.558594 189.675781 96.230469 L 193.402344 92.144531 C 193.753906 91.765625 194.109375 91.386719 194.515625 91.070312 C 194.605469 91.007812 194.710938 90.902344 194.660156 90.808594 C 194.621094 90.730469 194.515625 90.71875 194.421875 90.71875 C 193.898438 90.730469 193.378906 90.730469 192.84375 90.742188 C 192.65625 90.742188 192.464844 90.742188 192.289062 90.820312 Z M 192.289062 90.820312 " fill-opacity="1" fill-rule="nonzero"/><path fill="#ed2323" d="M 217.433594 93.574219 C 217.535156 93.53125 217.601562 93.417969 217.589844 93.140625 C 217.578125 92.667969 217.554688 92.210938 217.535156 91.742188 C 217.535156 91.632812 217.523438 91.53125 217.488281 91.4375 C 217.394531 91.265625 217.027344 91.1875 216.871094 91.136719 C 216.660156 91.058594 216.4375 91.007812 216.214844 90.941406 C 216.007812 90.875 215.785156 90.847656 215.5625 90.78125 C 214.894531 90.625 214.242188 90.496094 213.5625 90.441406 C 213.339844 90.414062 213.117188 90.429688 212.878906 90.414062 C 212.65625 90.402344 212.433594 90.363281 212.199219 90.363281 C 211.976562 90.363281 211.757812 90.390625 211.535156 90.402344 C 209.769531 90.480469 207.910156 90.835938 206.355469 91.699219 C 205.777344 92.011719 205.214844 92.472656 204.769531 92.941406 C 204.613281 93.113281 204.484375 93.296875 204.351562 93.464844 C 203.871094 94.1875 203.582031 95.144531 203.777344 96.03125 C 203.828125 96.242188 203.917969 96.453125 204.011719 96.664062 C 204.769531 98.363281 206.535156 99.242188 208.226562 99.769531 C 208.433594 99.832031 208.640625 99.894531 208.863281 99.949219 C 209.085938 100.003906 209.308594 100.039062 209.535156 100.082031 C 210.867188 100.34375 212.199219 100.394531 213.5625 100.277344 C 213.785156 100.25 214.019531 100.261719 214.242188 100.238281 C 214.859375 100.148438 215.460938 100.003906 216.046875 99.816406 C 216.390625 99.714844 217.25 99.582031 217.445312 99.269531 C 217.488281 99.214844 217.5 99.148438 217.5 99.085938 C 217.535156 98.445312 217.644531 97.683594 217.523438 97.058594 C 217.316406 97.105469 217.132812 97.316406 216.9375 97.449219 C 216.753906 97.582031 216.570312 97.726562 216.347656 97.828125 C 214.921875 98.574219 213.261719 98.835938 211.664062 98.746094 C 209.882812 98.640625 207.742188 98.167969 206.640625 96.625 C 206.066406 95.828125 206.054688 94.882812 206.628906 94.085938 C 208.226562 91.832031 211.914062 91.699219 214.332031 92.183594 C 215.027344 92.328125 215.734375 92.550781 216.347656 92.878906 C 216.558594 92.996094 217.144531 93.640625 217.433594 93.574219 Z M 217.433594 93.574219 " fill-opacity="1" fill-rule="nonzero"/><path fill="#ed2323" d="M 219.121094 99.925781 C 219.171875 99.976562 219.238281 99.976562 219.304688 99.988281 C 219.957031 100.015625 220.679688 100.171875 221.304688 99.960938 C 222.078125 99.726562 221.921875 98.484375 222.820312 98.484375 C 224.25 98.484375 225.671875 98.507812 227.101562 98.507812 C 227.804688 98.507812 228.523438 98.507812 229.230469 98.484375 C 229.796875 98.46875 230.5 98.3125 231.050781 98.429688 C 231.625 98.5625 231.636719 99.414062 232.046875 99.75 C 232.332031 100.015625 232.777344 100.015625 233.167969 100.015625 C 233.558594 100.003906 233.96875 99.988281 234.359375 99.988281 C 234.410156 99.988281 234.464844 99.988281 234.503906 99.960938 C 234.609375 99.882812 234.53125 99.714844 234.453125 99.609375 C 232.527344 97.015625 230.722656 94.332031 229.0625 91.554688 C 228.851562 91.1875 228.589844 90.796875 228.1875 90.679688 C 227.988281 90.613281 227.765625 90.640625 227.558594 90.652344 C 226.824219 90.71875 225.359375 90.535156 224.917969 91.199219 C 223.242188 93.730469 221.554688 96.257812 219.878906 98.769531 C 219.75 98.957031 218.910156 99.671875 219.121094 99.925781 Z M 223.867188 96.542969 C 223.84375 96.492188 223.828125 96.453125 223.828125 96.402344 C 223.84375 96.296875 223.90625 96.21875 223.972656 96.128906 C 224.472656 95.496094 224.953125 94.84375 225.414062 94.164062 C 225.648438 93.808594 225.871094 93.453125 226.09375 93.101562 C 226.210938 92.917969 226.535156 92.105469 226.722656 92.042969 C 227.136719 91.886719 227.886719 93.574219 228.09375 93.910156 C 228.617188 94.699219 229.164062 95.472656 229.742188 96.21875 C 229.808594 96.296875 229.875 96.402344 229.859375 96.492188 C 229.765625 96.9375 228.421875 96.585938 228.121094 96.570312 C 226.929688 96.464844 225.703125 96.558594 224.507812 96.714844 C 224.363281 96.726562 224.222656 96.753906 224.089844 96.703125 C 224 96.675781 223.90625 96.625 223.867188 96.542969 Z M 223.867188 96.542969 " fill-opacity="1" fill-rule="nonzero"/><path fill="#ed2323" d="M 250.199219 99.414062 C 249.691406 98.902344 249.179688 98.390625 248.695312 97.867188 C 248.449219 97.617188 248.226562 97.359375 247.992188 97.105469 C 247.753906 96.886719 247.464844 96.714844 247.273438 96.453125 C 247.242188 96.414062 247.21875 96.375 247.230469 96.335938 C 247.242188 96.207031 247.859375 96.164062 247.976562 96.140625 C 248.25 96.0625 248.539062 95.96875 248.789062 95.808594 C 248.984375 95.695312 249.179688 95.550781 249.347656 95.382812 C 249.445312 95.273438 249.78125 94.984375 249.78125 94.828125 C 250.304688 93.941406 250.265625 92.722656 249.601562 91.921875 C 249.191406 91.4375 248.578125 91.136719 247.964844 90.980469 C 247.335938 90.820312 246.683594 90.808594 246.042969 90.796875 C 243.058594 90.71875 240.0625 90.71875 237.082031 90.78125 C 236.992188 90.78125 236.894531 90.78125 236.847656 90.847656 C 236.792969 90.902344 236.792969 90.992188 236.792969 91.058594 L 236.792969 95.761719 C 236.792969 96.542969 236.792969 97.328125 236.792969 98.105469 L 236.792969 99.28125 C 236.792969 99.515625 236.609375 99.910156 236.9375 100.003906 C 237.082031 100.039062 237.210938 100.003906 237.355469 99.976562 C 237.839844 99.871094 238.347656 99.882812 238.832031 99.988281 C 238.925781 100.015625 239.015625 100.039062 239.097656 100.015625 C 239.265625 99.949219 239.289062 99.726562 239.277344 99.558594 C 239.277344 99.019531 239.265625 98.484375 239.253906 97.960938 C 239.242188 97.683594 239.242188 97.40625 239.222656 97.136719 C 239.222656 96.949219 239.222656 96.78125 239.210938 96.597656 C 239.210938 96.542969 239.210938 96.480469 239.253906 96.441406 C 239.367188 96.320312 239.855469 96.414062 240.023438 96.414062 C 240.324219 96.414062 240.609375 96.402344 240.914062 96.402344 C 241.460938 96.402344 242.015625 96.402344 242.546875 96.386719 L 243.570312 96.386719 C 243.832031 96.375 244.089844 96.375 244.355469 96.464844 C 244.734375 96.585938 245.019531 96.898438 245.28125 97.199219 L 247.320312 99.414062 C 247.492188 99.59375 247.664062 99.792969 247.898438 99.882812 C 248.09375 99.960938 248.316406 99.960938 248.539062 99.960938 L 250.488281 99.960938 C 250.542969 99.960938 250.609375 99.949219 250.621094 99.910156 C 250.632812 99.859375 250.59375 99.832031 250.566406 99.792969 C 250.449219 99.660156 250.320312 99.546875 250.199219 99.414062 Z M 243.464844 94.699219 L 242.875 94.699219 C 241.761719 94.683594 240.652344 94.683594 239.542969 94.683594 C 239.386719 94.683594 239.253906 94.644531 239.253906 94.476562 C 239.253906 94.070312 239.253906 93.675781 239.242188 93.273438 C 239.242188 93.101562 239.121094 92.601562 239.289062 92.5 C 239.367188 92.433594 239.542969 92.472656 239.644531 92.472656 C 239.800781 92.472656 239.957031 92.5 240.128906 92.484375 L 240.808594 92.484375 C 241.960938 92.472656 243.097656 92.484375 244.246094 92.484375 C 244.96875 92.484375 245.6875 92.472656 246.40625 92.589844 C 246.71875 92.644531 247.050781 92.722656 247.308594 92.917969 C 247.570312 93.101562 247.753906 93.441406 247.675781 93.753906 C 247.636719 93.964844 247.464844 94.148438 247.285156 94.265625 C 247.085938 94.386719 246.875 94.449219 246.65625 94.5 C 245.632812 94.738281 244.535156 94.726562 243.464844 94.699219 Z M 243.464844 94.699219 " fill-opacity="1" fill-rule="nonzero"/><path fill="#ed2323" d="M 252.753906 99.28125 C 252.777344 99.324219 252.832031 99.347656 252.882812 99.371094 C 254.53125 100.148438 256.414062 100.289062 258.234375 100.355469 C 260.273438 100.433594 262.367188 100.421875 264.289062 99.726562 C 264.773438 99.546875 265.273438 99.304688 265.570312 98.890625 C 265.78125 98.613281 265.886719 98.273438 265.964844 97.949219 C 266.054688 97.582031 266.105469 97.199219 266.042969 96.820312 C 265.9375 96.21875 265.492188 95.707031 264.972656 95.382812 C 264.433594 95.0625 263.820312 94.90625 263.214844 94.816406 C 260.824219 94.4375 258.351562 94.789062 255.96875 94.332031 C 255.460938 94.226562 254.859375 93.988281 254.792969 93.464844 C 254.753906 93.164062 254.9375 92.863281 255.183594 92.683594 C 255.433594 92.5 255.746094 92.40625 256.046875 92.34375 C 257.144531 92.089844 258.285156 92.011719 259.421875 92.027344 C 259.984375 92.027344 260.546875 92.054688 261.113281 92.105469 C 261.347656 92.121094 261.570312 92.078125 261.792969 92.121094 C 262.027344 92.15625 262.246094 92.234375 262.46875 92.300781 C 262.847656 92.378906 263.214844 92.484375 263.570312 92.601562 C 264.265625 92.851562 264.929688 93.195312 265.453125 93.71875 C 265.453125 93.074219 265.464844 92.433594 265.480469 91.789062 C 265.480469 91.6875 265.480469 91.597656 265.441406 91.5 C 265.386719 91.398438 265.273438 91.34375 265.164062 91.296875 C 263.53125 90.523438 261.660156 90.414062 259.851562 90.390625 C 258.15625 90.363281 256.425781 90.414062 254.792969 90.863281 C 254.074219 91.058594 253.367188 91.34375 252.867188 91.910156 C 252.242188 92.628906 252.125 93.753906 252.609375 94.59375 C 252.960938 95.207031 253.574219 95.628906 254.230469 95.863281 C 254.894531 96.113281 255.605469 96.175781 256.3125 96.230469 C 258.195312 96.347656 260.09375 96.285156 261.988281 96.425781 C 262.367188 96.464844 262.769531 96.507812 263.097656 96.703125 C 263.441406 96.898438 263.6875 97.292969 263.609375 97.671875 C 263.492188 98.140625 262.957031 98.363281 262.480469 98.46875 C 261.582031 98.679688 260.640625 98.71875 259.710938 98.746094 C 258.480469 98.757812 257.238281 98.730469 256.023438 98.496094 C 254.804688 98.261719 253.617188 97.789062 252.644531 97.015625 C 252.621094 97.726562 252.632812 98.417969 252.6875 99.113281 C 252.699219 99.164062 252.699219 99.214844 252.722656 99.257812 C 252.738281 99.269531 252.738281 99.28125 252.753906 99.28125 Z M 252.753906 99.28125 " fill-opacity="1" fill-rule="nonzero"/></svg>