<svg xmlns="http://www.w3.org/2000/svg" xmlns:xlink="http://www.w3.org/1999/xlink" width="500" zoomAndPan="magnify" viewBox="0 0 375 374.999991" height="500" preserveAspectRatio="xMidYMid meet" version="1.0"><defs><g/><clipPath id="62e0d540c2"><path d="M 84 176 L 301 176 L 301 185.859375 L 84 185.859375 Z M 84 176 " clip-rule="nonzero"/></clipPath><clipPath id="2360b02b63"><path d="M 43 142 L 332.269531 142 L 332.269531 185.859375 L 43 185.859375 Z M 43 142 " clip-rule="nonzero"/></clipPath></defs><rect x="-37.5" width="450" fill="#ffffff" y="-37.499999" height="449.999989" fill-opacity="1"/><rect x="-37.5" width="450" fill="#ffffff" y="-37.499999" height="449.999989" fill-opacity="1"/><g clip-path="url(#62e0d540c2)"><path fill="#000000" d="M 94.230469 184 C 102.089844 184.496094 109.9375 184.972656 117.78125 185.382812 C 118.449219 185.078125 119.445312 184.878906 120.929688 184.785156 C 161.261719 182.714844 206.484375 181.558594 300.167969 176.675781 C 283.886719 175.582031 206.917969 178.308594 158.757812 179.820312 C 135.628906 180.550781 112.492188 181.515625 89.390625 182.921875 C 88.96875 182.933594 86.652344 183.148438 84.085938 183.496094 C 87.484375 183.609375 90.875 183.785156 94.230469 184 Z M 94.230469 184 " fill-opacity="1" fill-rule="nonzero"/></g><g clip-path="url(#2360b02b63)"><path fill="#ed2323" d="M 331.710938 185.019531 C 331.207031 183.652344 330.6875 182.324219 329.917969 181.117188 C 330.707031 179.960938 331.027344 178.675781 330.914062 177.09375 C 330.871094 176.648438 330.792969 176.210938 330.679688 175.78125 C 330.472656 174.875 330.195312 173.632812 330.609375 173.207031 L 330.652344 173.15625 C 330.828125 172.972656 330.949219 172.757812 331.007812 172.511719 C 331.027344 172.417969 331.042969 172.320312 331.050781 172.234375 L 331.050781 172.113281 C 331.027344 169.289062 330.375 167.457031 327.132812 166.394531 C 325.089844 165.726562 322.6875 165.71875 320.5625 165.707031 L 319.695312 165.707031 C 316.59375 165.671875 313.5 165.515625 310.550781 165.257812 C 308.550781 164.925781 306.53125 164.222656 304.570312 163.542969 C 303.933594 163.320312 303.300781 163.101562 302.671875 162.894531 C 300.695312 162.25 298.71875 161.589844 296.742188 160.9375 C 293.421875 159.84375 289.980469 158.703125 286.582031 157.609375 C 274.421875 153.691406 261.417969 149.667969 248.078125 147.320312 C 223.902344 142.59375 200.4375 141.609375 178.355469 144.398438 C 156.695312 147.136719 137.371094 157.355469 118.691406 167.230469 L 115.078125 169.140625 C 103.078125 169.191406 87.460938 169.808594 72.714844 174.09375 C 63.820312 176.675781 54.667969 180.230469 45.488281 184.671875 L 43.015625 185.859375 L 50.210938 185.84375 L 50.324219 185.800781 C 56.355469 183.183594 65.882812 179.472656 72.429688 177.441406 C 86.878906 172.949219 102.292969 172.304688 115.457031 172.261719 C 115.710938 172.261719 115.953125 172.203125 116.179688 172.085938 L 116.222656 172.0625 C 117.574219 171.355469 118.921875 170.644531 120.261719 169.933594 C 138.378906 160.355469 157.109375 150.449219 177.96875 147.589844 C 199.5 144.636719 222.84375 145.566406 247.367188 150.363281 C 260.457031 152.664062 273.492188 156.6875 285.714844 160.605469 C 289.433594 161.796875 293.195312 163.039062 296.839844 164.25 L 301.234375 165.699219 L 303.289062 166.414062 C 305.464844 167.167969 307.71875 167.960938 309.996094 168.316406 L 310.109375 168.332031 L 310.28125 168.359375 C 313.378906 168.644531 316.777344 168.800781 320.683594 168.835938 C 322.585938 168.855469 324.46875 169.046875 326.335938 169.410156 C 327.089844 169.550781 327.472656 169.820312 327.671875 170.21875 C 323.335938 170.234375 319.125 171.15625 315.535156 172.070312 L 314.53125 172.320312 C 311.824219 172.992188 308.757812 173.753906 306.355469 175.214844 C 305.886719 175.503906 305.617188 175.960938 305.609375 176.433594 C 305.59375 176.597656 305.601562 176.765625 305.636719 176.925781 C 306.730469 182.261719 312.5625 182.664062 314.476562 182.792969 C 319.046875 183.105469 323.3125 183.019531 327.152344 182.53125 C 327.878906 183.515625 328.363281 184.601562 328.710938 185.46875 L 328.867188 185.859375 L 332.023438 185.859375 Z M 326.804688 179.449219 C 323.78125 179.820312 320.632812 179.820312 317.398438 179.777344 L 316.699219 179.777344 C 313.84375 179.761719 310.34375 179.742188 309.058594 177.328125 C 310.636719 176.597656 312.441406 176.128906 314.183594 175.667969 L 315.5625 175.300781 C 320.171875 174.023438 323.960938 173.40625 327.386719 173.363281 C 327.34375 174.09375 327.472656 174.875 327.59375 175.648438 C 327.898438 177.554688 328 178.777344 326.804688 179.449219 Z M 326.804688 179.449219 " fill-opacity="1" fill-rule="nonzero"/></g><path fill="#ed2323" d="M 280.011719 169.375 C 280.011719 169.375 277.445312 170.359375 276.328125 170.574219 C 274.445312 170.929688 267.996094 171.660156 267.996094 171.660156 C 274.480469 172.21875 301.996094 170.503906 300.789062 170.503906 C 294.289062 170.503906 285.074219 169.800781 280.011719 169.375 Z M 280.011719 169.375 " fill-opacity="1" fill-rule="nonzero"/><path fill="#ed2323" d="M 281.710938 163.613281 C 282.734375 162.570312 281.738281 161.988281 281.460938 161.894531 C 254.585938 152.875 225.410156 147.9375 196.917969 148.398438 C 194.550781 148.441406 192.183594 148.511719 189.835938 148.625 C 172.246094 149.476562 155.074219 154.933594 139.359375 162.972656 L 139.332031 162.972656 C 139.027344 163.117188 138.726562 163.273438 138.4375 163.433594 C 133.144531 166.195312 128.011719 169.230469 123.035156 172.539062 C 121.71875 173.503906 121.996094 174.226562 123.449219 174.414062 C 125.089844 174.546875 127.65625 174.484375 129.699219 174.503906 C 132.265625 174.539062 142.503906 174.355469 153.097656 174.136719 C 162.304688 173.945312 171.769531 173.730469 176.691406 173.574219 C 193.484375 173.058594 210.238281 172.53125 227.039062 172.261719 C 236.140625 172.113281 245.242188 171.921875 254.328125 171.433594 C 259.910156 171.140625 266.117188 171.164062 271.484375 169.417969 C 275.359375 168.230469 278.84375 166.523438 281.710938 163.613281 Z M 126.113281 172.765625 C 128.707031 171.109375 131.351562 169.511719 134.042969 167.976562 C 133.496094 169.382812 133.496094 170.957031 134.3125 172.617188 C 131.617188 172.703125 128.832031 172.878906 126.113281 172.765625 Z M 190.320312 171.132812 C 180.472656 171.46875 170.625 171.894531 160.769531 172.128906 L 153.0625 172.296875 L 146.996094 172.410156 C 148.476562 169.730469 148.40625 167.585938 147.652344 166.019531 C 146.777344 164.171875 144.984375 163.128906 143.710938 162.917969 C 158.195312 155.976562 173.796875 151.351562 189.816406 150.5 C 192.183594 150.378906 194.566406 150.292969 196.941406 150.25 C 193.882812 156.828125 192.0625 164.125 190.320312 171.132812 Z M 199.957031 171.175781 L 198.050781 171.191406 C 198.554688 165.820312 200.644531 157.480469 201.867188 152.230469 C 201.867188 152.230469 200.445312 165.96875 199.957031 171.175781 Z M 245.773438 169.933594 C 234.042969 170.347656 222.304688 170.460938 210.578125 170.601562 L 207.308594 170.660156 C 207.386719 163.875 207.960938 157.097656 208.359375 150.328125 C 219.183594 150.699219 229.933594 151.785156 240.613281 153.59375 C 240.636719 153.621094 240.65625 153.644531 240.683594 153.664062 C 246.230469 158.453125 251.371094 163.839844 256.113281 169.460938 C 252.664062 169.671875 249.214844 169.808594 245.773438 169.933594 Z M 261.269531 169.097656 C 260.328125 169.175781 259.371094 169.238281 258.417969 169.304688 C 254.007812 163.996094 249.238281 158.851562 244.109375 154.195312 C 256.085938 156.386719 267.863281 159.386719 279.429688 163.195312 C 276.996094 165.324219 274.152344 166.636719 270.996094 167.613281 C 267.84375 168.585938 264.496094 168.820312 261.269531 169.097656 Z M 261.269531 169.097656 " fill-opacity="1" fill-rule="nonzero"/><g fill="#000000" fill-opacity="1"><g transform="translate(48.993389, 223.100313)"><g><path d="M 21.300781 0.4375 C 33.175781 0.4375 37.953125 -4.296875 38.832031 -9.859375 L 33.964844 -9.859375 C 33 -6.441406 29.40625 -3.945312 21.300781 -3.945312 C 11.789062 -3.945312 8.0625 -7.539062 8.0625 -12.753906 L 8.0625 -13.675781 C 8.0625 -18.890625 11.789062 -22.484375 21.300781 -22.484375 C 28.574219 -22.484375 33.484375 -19.898438 34.011719 -16.828125 L 38.875 -16.828125 C 38.480469 -22.089844 32.34375 -26.867188 21.300781 -26.867188 C 7.757812 -26.867188 3.507812 -20.597656 3.507812 -13.675781 L 3.507812 -12.753906 C 3.507812 -5.828125 7.757812 0.4375 21.300781 0.4375 Z M 21.300781 0.4375 "/></g></g></g><g fill="#000000" fill-opacity="1"><g transform="translate(95.356297, 223.100313)"><g><path d="M 29.011719 0 L 34.140625 0 L 19.765625 -26.164062 L 19.808594 -26.296875 L 14.550781 -26.296875 L 14.636719 -26.164062 L 0.21875 0 L 5.347656 0 L 7.933594 -4.691406 L 26.429688 -4.691406 Z M 10.34375 -9.070312 L 17.179688 -21.519531 L 24.015625 -9.070312 Z M 10.34375 -9.070312 "/></g></g></g><g fill="#000000" fill-opacity="1"><g transform="translate(133.568613, 223.100313)"><g><path d="M 36.550781 -18.625 L 36.550781 -19.109375 C 36.550781 -23.84375 33.484375 -26.296875 28.355469 -26.296875 L 5.433594 -26.296875 L 5.433594 0 L 10.210938 0 L 10.210938 -10.167969 L 26.515625 -10.167969 C 30.941406 -10.167969 30.941406 -7.449219 30.941406 -5.390625 L 30.941406 -2.453125 C 30.941406 -1.664062 30.984375 -0.789062 31.117188 0 L 36.246094 0 C 36.113281 -0.789062 36.027344 -1.664062 36.027344 -2.628906 L 36.027344 -5.742188 C 36.027344 -8.457031 34.929688 -10.824219 32.386719 -12.226562 C 34.886719 -13.015625 36.550781 -14.8125 36.550781 -18.625 Z M 10.210938 -14.859375 L 10.210938 -21.914062 L 28.355469 -21.914062 C 31.335938 -21.914062 31.992188 -20.378906 31.992188 -19.109375 L 31.992188 -18.625 C 31.992188 -16.566406 30.855469 -14.859375 28.355469 -14.859375 Z M 10.210938 -14.859375 "/></g></g></g><g fill="#000000" fill-opacity="1"><g transform="translate(177.25847, 223.100313)"><g/></g></g><g fill="#000000" fill-opacity="1"><g transform="translate(198.643747, 223.100313)"><g><path d="M 32.871094 -26.296875 L 32.871094 -15.03125 L 9.90625 -15.03125 L 9.90625 -26.296875 L 5.433594 -26.296875 L 5.433594 0 L 9.90625 0 L 9.90625 -11.261719 L 32.871094 -11.261719 L 32.871094 0 L 37.339844 0 L 37.339844 -26.296875 Z M 32.871094 -26.296875 "/></g></g></g><g fill="#000000" fill-opacity="1"><g transform="translate(245.26957, 223.100313)"><g><path d="M 19.808594 0.4375 C 33.570312 0.4375 36.070312 -6.136719 36.070312 -12.796875 L 36.070312 -26.207031 L 31.203125 -26.207031 L 30.984375 -12.183594 C 30.984375 -7.320312 28.050781 -4.25 19.808594 -4.25 C 11.832031 -4.25 8.632812 -7.539062 8.632812 -12.183594 L 8.632812 -26.207031 L 3.769531 -26.207031 L 3.550781 -12.183594 C 3.550781 -5.828125 6.265625 0.4375 19.808594 0.4375 Z M 19.808594 0.4375 "/></g></g></g><g fill="#000000" fill-opacity="1"><g transform="translate(289.003238, 223.100313)"><g><path d="M 5.433594 0 L 21.476562 0 C 28.398438 0 33.308594 -2.628906 33.308594 -8.019531 L 33.308594 -8.679688 C 33.308594 -12.839844 30.152344 -13.324219 29.757812 -13.675781 C 30.417969 -13.980469 32.738281 -14.988281 32.738281 -19.109375 L 32.738281 -19.460938 C 32.738281 -24.324219 28.445312 -26.296875 23.667969 -26.296875 L 5.433594 -26.296875 Z M 9.90625 -16.085938 L 9.90625 -21.914062 L 23.667969 -21.914062 C 27.128906 -21.914062 28.179688 -20.816406 28.179688 -19.460938 L 28.179688 -19.109375 C 28.179688 -16.65625 26.867188 -16.085938 23.667969 -16.085938 Z M 9.90625 -4.382812 L 9.90625 -11.394531 L 21.476562 -11.394531 C 26.382812 -11.394531 28.75 -11.308594 28.75 -8.679688 L 28.75 -8.019531 C 28.75 -6.574219 26.910156 -4.382812 21.476562 -4.382812 Z M 9.90625 -4.382812 "/></g></g></g><g fill="#ed2323" fill-opacity="1"><g transform="translate(85.408611, 248.240874)"><g><path d="M 1.535156 0 C 1.378906 -0.140625 1.425781 -0.3125 1.472656 -0.515625 C 1.570312 -0.863281 1.535156 -1.238281 1.535156 -1.601562 C 1.550781 -3.074219 1.550781 -4.5625 1.550781 -6.054688 C 1.550781 -6.886719 1.585938 -7.699219 1.585938 -8.515625 C 1.585938 -8.941406 1.585938 -9.363281 1.550781 -9.785156 C 1.535156 -10.117188 1.347656 -10.539062 1.457031 -10.867188 C 1.570312 -11.167969 1.914062 -11.089844 2.148438 -11.042969 C 2.605469 -10.980469 3.058594 -10.949219 3.511719 -10.980469 C 3.703125 -10.980469 3.890625 -11.011719 4.078125 -11.058594 C 4.265625 -11.105469 4.484375 -11.042969 4.546875 -10.835938 C 4.5625 -10.726562 4.546875 -10.617188 4.53125 -10.507812 C 4.4375 -9.992188 4.4375 -9.472656 4.4375 -8.941406 C 4.421875 -7.90625 4.4375 -6.839844 4.453125 -5.789062 C 4.46875 -5.253906 4.46875 -4.707031 4.46875 -4.15625 C 4.46875 -3.65625 4.40625 -3.167969 4.375 -2.667969 C 4.359375 -2.523438 4.359375 -2.367188 4.46875 -2.257812 C 4.675781 -2.070312 4.988281 -2.242188 5.207031 -2.289062 C 5.519531 -2.351562 5.851562 -2.289062 6.164062 -2.289062 C 7.417969 -2.242188 8.671875 -2.289062 9.929688 -2.289062 C 11.230469 -2.289062 12.53125 -2.289062 13.832031 -2.304688 C 14.257812 -2.304688 14.679688 -2.320312 15.105469 -2.320312 C 15.511719 -2.320312 15.511719 -2.257812 15.917969 -2.257812 C 16.171875 -2.257812 16.421875 -2.429688 16.65625 -2.367188 C 16.9375 -2.289062 16.890625 -1.882812 16.859375 -1.679688 C 16.796875 -1.285156 16.6875 -0.925781 16.78125 -0.535156 C 16.8125 -0.4375 16.84375 -0.34375 16.84375 -0.234375 C 16.859375 0.078125 16.53125 0.109375 16.296875 0.078125 C 15.246094 -0.078125 14.210938 -0.03125 13.160156 0 C 10.585938 0.0625 8 0 5.425781 0 C 4.5625 0.015625 3.6875 0 2.824219 -0.03125 C 2.507812 -0.046875 2.226562 0.140625 1.914062 0.140625 C 1.789062 0.140625 1.648438 0.09375 1.535156 0 Z M 1.535156 0 "/></g></g></g><g fill="#ed2323" fill-opacity="1"><g transform="translate(103.664937, 248.240874)"><g><path d="M 1.585938 -5.019531 C 1.601562 -4.40625 1.679688 -3.796875 1.898438 -3.214844 C 2.226562 -2.289062 2.917969 -1.519531 3.71875 -0.957031 C 4.53125 -0.390625 5.472656 -0.046875 6.429688 0.1875 C 8.71875 0.738281 11.136719 0.597656 13.410156 0.03125 C 14.648438 -0.28125 15.917969 -0.738281 16.703125 -1.742188 C 17.597656 -2.886719 17.644531 -4.453125 17.660156 -5.914062 C 17.675781 -7.355469 17.707031 -8.796875 17.722656 -10.242188 C 17.722656 -10.476562 17.707031 -10.757812 17.503906 -10.902344 C 17.378906 -10.980469 17.222656 -10.980469 17.078125 -10.980469 L 15.230469 -10.980469 C 15.074219 -10.980469 14.898438 -10.964844 14.789062 -10.835938 C 14.710938 -10.742188 14.710938 -10.601562 14.710938 -10.476562 C 14.726562 -8.925781 14.757812 -7.386719 14.773438 -5.835938 C 14.789062 -4.722656 14.757812 -3.480469 13.988281 -2.667969 C 13.441406 -2.070312 12.59375 -1.851562 11.792969 -1.726562 C 10.257812 -1.472656 8.6875 -1.503906 7.167969 -1.851562 C 6.585938 -1.976562 5.992188 -2.164062 5.519531 -2.554688 C 5.035156 -2.980469 4.738281 -3.589844 4.609375 -4.234375 C 4.46875 -4.863281 4.46875 -5.519531 4.484375 -6.164062 C 4.484375 -7.621094 4.5 -9.066406 4.515625 -10.523438 C 4.515625 -11.339844 3.75 -10.949219 3.230469 -10.917969 C 2.824219 -10.882812 2.398438 -10.917969 1.992188 -10.996094 C 1.882812 -11.027344 1.773438 -11.042969 1.679688 -10.996094 C 1.519531 -10.917969 1.503906 -10.695312 1.519531 -10.507812 C 1.601562 -9.207031 1.632812 -7.890625 1.601562 -6.570312 C 1.585938 -6.054688 1.570312 -5.535156 1.585938 -5.019531 Z M 1.585938 -5.019531 "/></g></g></g><g fill="#ed2323" fill-opacity="1"><g transform="translate(123.599467, 248.240874)"><g><path d="M 0.832031 0 C 0.785156 -0.15625 1.082031 -0.234375 1.207031 -0.3125 L 2.523438 -1.113281 C 3.386719 -1.664062 4.25 -2.226562 5.128906 -2.777344 C 6.710938 -3.71875 9.628906 -5.253906 8.796875 -5.820312 L 7.714844 -6.523438 C 6.980469 -6.996094 6.242188 -7.480469 5.503906 -7.953125 L 1.128906 -10.789062 C 0.832031 -10.996094 1.222656 -11.027344 1.378906 -11.042969 C 2.351562 -11.136719 3.355469 -10.996094 4.328125 -10.980469 C 4.609375 -10.980469 4.910156 -10.964844 5.175781 -10.882812 C 5.472656 -10.804688 5.742188 -10.632812 5.992188 -10.460938 L 11.261719 -7.027344 C 11.324219 -6.996094 11.371094 -6.964844 11.433594 -6.949219 C 11.589844 -6.917969 11.730469 -7.027344 11.855469 -7.136719 C 13.519531 -8.546875 15.605469 -9.363281 17.300781 -10.742188 C 17.425781 -10.851562 17.550781 -10.964844 17.707031 -11.027344 C 17.925781 -11.105469 18.164062 -11.058594 18.398438 -11.027344 C 19.527344 -10.882812 20.6875 -10.902344 21.816406 -11.089844 C 21.925781 -11.105469 22.097656 -11.089844 22.097656 -10.980469 C 22.097656 -10.917969 22.035156 -10.867188 21.972656 -10.835938 C 20.40625 -9.832031 18.820312 -8.832031 17.238281 -7.828125 C 16.125 -7.105469 14.992188 -6.398438 13.878906 -5.675781 C 13.800781 -5.644531 13.722656 -5.582031 13.722656 -5.503906 C 13.722656 -5.300781 14.179688 -4.910156 18.019531 -2.636719 L 20.136719 -1.269531 C 20.453125 -1.066406 20.796875 -0.910156 21.125 -0.722656 C 21.347656 -0.582031 21.597656 -0.46875 21.785156 -0.28125 C 22.304688 0.203125 21.203125 0.046875 21 0.03125 C 20.625 0.015625 20.265625 -0.015625 19.902344 -0.015625 C 19.199219 0 18.476562 0.1875 17.785156 0 C 17.316406 -0.140625 16.9375 -0.453125 16.546875 -0.722656 C 16.042969 -1.050781 15.542969 -1.394531 15.023438 -1.726562 L 12.109375 -3.6875 C 11.9375 -3.796875 11.761719 -3.921875 11.558594 -3.9375 C 11.246094 -3.984375 10.949219 -3.796875 10.664062 -3.621094 C 9.128906 -2.585938 7.589844 -1.550781 6.039062 -0.515625 C 5.757812 -0.328125 5.472656 -0.140625 5.160156 -0.03125 C 4.515625 0.171875 3.859375 0.078125 3.199219 0.015625 C 2.539062 -0.0625 1.851562 0 1.207031 0.109375 C 1.113281 0.125 0.894531 0.140625 0.847656 0.046875 C 0.832031 0.03125 0.832031 0.015625 0.832031 0 Z M 0.832031 0 "/></g></g></g><g fill="#ed2323" fill-opacity="1"><g transform="translate(147.094288, 248.240874)"><g><path d="M 1.585938 -5.019531 C 1.601562 -4.40625 1.679688 -3.796875 1.898438 -3.214844 C 2.226562 -2.289062 2.917969 -1.519531 3.71875 -0.957031 C 4.53125 -0.390625 5.472656 -0.046875 6.429688 0.1875 C 8.71875 0.738281 11.136719 0.597656 13.410156 0.03125 C 14.648438 -0.28125 15.917969 -0.738281 16.703125 -1.742188 C 17.597656 -2.886719 17.644531 -4.453125 17.660156 -5.914062 C 17.675781 -7.355469 17.707031 -8.796875 17.722656 -10.242188 C 17.722656 -10.476562 17.707031 -10.757812 17.503906 -10.902344 C 17.378906 -10.980469 17.222656 -10.980469 17.078125 -10.980469 L 15.230469 -10.980469 C 15.074219 -10.980469 14.898438 -10.964844 14.789062 -10.835938 C 14.710938 -10.742188 14.710938 -10.601562 14.710938 -10.476562 C 14.726562 -8.925781 14.757812 -7.386719 14.773438 -5.835938 C 14.789062 -4.722656 14.757812 -3.480469 13.988281 -2.667969 C 13.441406 -2.070312 12.59375 -1.851562 11.792969 -1.726562 C 10.257812 -1.472656 8.6875 -1.503906 7.167969 -1.851562 C 6.585938 -1.976562 5.992188 -2.164062 5.519531 -2.554688 C 5.035156 -2.980469 4.738281 -3.589844 4.609375 -4.234375 C 4.46875 -4.863281 4.46875 -5.519531 4.484375 -6.164062 C 4.484375 -7.621094 4.5 -9.066406 4.515625 -10.523438 C 4.515625 -11.339844 3.75 -10.949219 3.230469 -10.917969 C 2.824219 -10.882812 2.398438 -10.917969 1.992188 -10.996094 C 1.882812 -11.027344 1.773438 -11.042969 1.679688 -10.996094 C 1.519531 -10.917969 1.503906 -10.695312 1.519531 -10.507812 C 1.601562 -9.207031 1.632812 -7.890625 1.601562 -6.570312 C 1.585938 -6.054688 1.570312 -5.535156 1.585938 -5.019531 Z M 1.585938 -5.019531 "/></g></g></g><g fill="#ed2323" fill-opacity="1"><g transform="translate(167.028819, 248.240874)"><g><path d="M 17.644531 -0.628906 C 17.03125 -1.238281 16.421875 -1.851562 15.839844 -2.476562 C 15.542969 -2.777344 15.277344 -3.089844 14.992188 -3.386719 C 14.710938 -3.65625 14.367188 -3.859375 14.132812 -4.171875 C 14.101562 -4.21875 14.070312 -4.265625 14.085938 -4.3125 C 14.101562 -4.46875 14.835938 -4.515625 14.976562 -4.546875 C 15.308594 -4.640625 15.652344 -4.753906 15.949219 -4.941406 C 16.1875 -5.082031 16.421875 -5.253906 16.625 -5.457031 C 16.734375 -5.582031 17.144531 -5.929688 17.144531 -6.117188 C 17.769531 -7.183594 17.722656 -8.640625 16.921875 -9.597656 C 16.4375 -10.179688 15.699219 -10.539062 14.960938 -10.726562 C 14.210938 -10.917969 13.425781 -10.933594 12.65625 -10.949219 C 9.082031 -11.042969 5.488281 -11.042969 1.914062 -10.964844 C 1.804688 -10.964844 1.695312 -10.964844 1.632812 -10.882812 C 1.570312 -10.820312 1.570312 -10.710938 1.570312 -10.632812 L 1.570312 -5.003906 C 1.570312 -4.0625 1.570312 -3.121094 1.570312 -2.195312 L 1.570312 -0.785156 C 1.570312 -0.5 1.347656 -0.03125 1.742188 0.078125 C 1.914062 0.125 2.070312 0.078125 2.242188 0.046875 C 2.824219 -0.078125 3.433594 -0.0625 4.015625 0.0625 C 4.125 0.09375 4.234375 0.125 4.328125 0.09375 C 4.53125 0.015625 4.5625 -0.25 4.546875 -0.453125 C 4.546875 -1.097656 4.53125 -1.742188 4.515625 -2.367188 C 4.5 -2.699219 4.5 -3.027344 4.484375 -3.355469 C 4.484375 -3.574219 4.484375 -3.78125 4.46875 -4 C 4.46875 -4.0625 4.46875 -4.140625 4.515625 -4.1875 C 4.65625 -4.328125 5.238281 -4.21875 5.441406 -4.21875 C 5.804688 -4.21875 6.148438 -4.234375 6.507812 -4.234375 C 7.167969 -4.234375 7.828125 -4.234375 8.46875 -4.25 L 9.691406 -4.25 C 10.007812 -4.265625 10.320312 -4.265625 10.632812 -4.15625 C 11.089844 -4.015625 11.433594 -3.640625 11.746094 -3.277344 L 14.195312 -0.628906 C 14.398438 -0.40625 14.601562 -0.171875 14.882812 -0.0625 C 15.121094 0.03125 15.386719 0.03125 15.652344 0.03125 L 17.988281 0.03125 C 18.050781 0.03125 18.128906 0.015625 18.148438 -0.03125 C 18.164062 -0.09375 18.113281 -0.125 18.082031 -0.171875 C 17.941406 -0.328125 17.785156 -0.46875 17.644531 -0.628906 Z M 9.566406 -6.273438 L 8.863281 -6.273438 C 7.527344 -6.289062 6.195312 -6.289062 4.863281 -6.289062 C 4.675781 -6.289062 4.515625 -6.335938 4.515625 -6.539062 C 4.515625 -7.027344 4.515625 -7.496094 4.5 -7.984375 C 4.5 -8.1875 4.359375 -8.78125 4.5625 -8.910156 C 4.65625 -8.988281 4.863281 -8.941406 4.988281 -8.941406 C 5.175781 -8.941406 5.363281 -8.910156 5.566406 -8.925781 L 6.382812 -8.925781 C 7.761719 -8.941406 9.128906 -8.925781 10.507812 -8.925781 C 11.371094 -8.925781 12.234375 -8.941406 13.097656 -8.796875 C 13.472656 -8.734375 13.863281 -8.640625 14.179688 -8.40625 C 14.492188 -8.1875 14.710938 -7.78125 14.617188 -7.402344 C 14.570312 -7.152344 14.367188 -6.933594 14.148438 -6.792969 C 13.910156 -6.648438 13.660156 -6.570312 13.394531 -6.507812 C 12.171875 -6.226562 10.851562 -6.242188 9.566406 -6.273438 Z M 9.566406 -6.273438 "/></g></g></g><g fill="#ed2323" fill-opacity="1"><g transform="translate(186.696718, 248.240874)"><g><path d="M 13.816406 -10.917969 C 13.800781 -10.902344 13.785156 -10.882812 13.769531 -10.882812 C 13.628906 -10.804688 13.519531 -10.695312 13.425781 -10.570312 C 11.953125 -8.972656 10.492188 -7.371094 9.019531 -5.757812 C 8.816406 -5.535156 8.609375 -5.535156 8.40625 -5.773438 C 7.011719 -7.308594 5.628906 -8.847656 4.234375 -10.398438 C 4.015625 -10.648438 3.765625 -10.902344 3.433594 -10.980469 C 3.230469 -11.027344 3.027344 -10.996094 2.824219 -10.980469 C 2.226562 -10.917969 1.617188 -10.949219 1.019531 -11.074219 C 0.925781 -11.089844 0.832031 -11.105469 0.769531 -11.042969 C 0.644531 -10.917969 0.816406 -10.726562 0.957031 -10.648438 C 1.503906 -10.304688 1.835938 -9.769531 2.257812 -9.300781 C 2.730469 -8.796875 3.230469 -8.3125 3.703125 -7.796875 C 4.3125 -7.183594 4.878906 -6.523438 5.457031 -5.898438 C 5.742188 -5.582031 6.039062 -5.253906 6.335938 -4.941406 C 6.585938 -4.65625 6.886719 -4.375 7.121094 -4.078125 C 7.277344 -3.859375 7.324219 -3.65625 7.308594 -3.402344 C 7.292969 -2.398438 7.261719 -1.394531 7.246094 -0.390625 C 7.246094 -0.234375 7.261719 -0.03125 7.417969 0.015625 C 7.449219 0.03125 7.496094 0.03125 7.527344 0.03125 C 8.328125 0.015625 9.128906 0.015625 9.929688 0.015625 C 9.976562 0.015625 10.039062 0.015625 10.085938 -0.015625 C 10.242188 -0.078125 10.257812 -0.28125 10.257812 -0.4375 C 10.226562 -1.332031 10.210938 -2.242188 10.195312 -3.136719 C 10.179688 -3.671875 10.320312 -4.046875 10.679688 -4.4375 L 15.152344 -9.332031 C 15.574219 -9.785156 15.996094 -10.242188 16.484375 -10.617188 C 16.59375 -10.695312 16.71875 -10.820312 16.65625 -10.933594 C 16.609375 -11.027344 16.484375 -11.042969 16.375 -11.042969 C 15.746094 -11.027344 15.121094 -11.027344 14.476562 -11.011719 C 14.257812 -11.011719 14.023438 -11.011719 13.816406 -10.917969 Z M 13.816406 -10.917969 "/></g></g></g><g fill="#ed2323" fill-opacity="1"><g transform="translate(204.90599, 248.240874)"><g/></g></g><g fill="#ed2323" fill-opacity="1"><g transform="translate(213.453832, 248.240874)"><g><path d="M 17.207031 -7.621094 C 17.332031 -7.667969 17.410156 -7.8125 17.394531 -8.140625 C 17.378906 -8.703125 17.347656 -9.253906 17.332031 -9.816406 C 17.332031 -9.945312 17.316406 -10.070312 17.269531 -10.179688 C 17.160156 -10.382812 16.71875 -10.476562 16.53125 -10.539062 C 16.28125 -10.632812 16.011719 -10.695312 15.746094 -10.773438 C 15.496094 -10.851562 15.230469 -10.882812 14.960938 -10.964844 C 14.164062 -11.152344 13.378906 -11.308594 12.5625 -11.371094 C 12.296875 -11.402344 12.03125 -11.386719 11.746094 -11.402344 C 11.480469 -11.417969 11.214844 -11.464844 10.933594 -11.464844 C 10.664062 -11.464844 10.398438 -11.433594 10.132812 -11.417969 C 8.015625 -11.324219 5.789062 -10.902344 3.921875 -9.867188 C 3.230469 -9.488281 2.554688 -8.941406 2.023438 -8.375 C 1.835938 -8.171875 1.679688 -7.953125 1.519531 -7.746094 C 0.941406 -6.886719 0.597656 -5.742188 0.832031 -4.675781 C 0.894531 -4.421875 1.003906 -4.171875 1.113281 -3.921875 C 2.023438 -1.882812 4.140625 -0.832031 6.164062 -0.203125 C 6.414062 -0.125 6.664062 -0.046875 6.933594 0.015625 C 7.199219 0.078125 7.464844 0.125 7.730469 0.171875 C 9.332031 0.484375 10.933594 0.550781 12.5625 0.40625 C 12.828125 0.375 13.113281 0.390625 13.378906 0.359375 C 14.117188 0.25 14.835938 0.078125 15.542969 -0.140625 C 15.949219 -0.265625 16.984375 -0.421875 17.222656 -0.800781 C 17.269531 -0.863281 17.285156 -0.941406 17.285156 -1.019531 C 17.332031 -1.789062 17.457031 -2.699219 17.316406 -3.449219 C 17.0625 -3.386719 16.84375 -3.136719 16.609375 -2.980469 C 16.390625 -2.824219 16.171875 -2.652344 15.902344 -2.523438 C 14.195312 -1.632812 12.203125 -1.316406 10.289062 -1.425781 C 8.15625 -1.550781 5.582031 -2.117188 4.265625 -3.96875 C 3.574219 -4.925781 3.558594 -6.054688 4.25 -7.011719 C 6.164062 -9.707031 10.585938 -9.867188 13.488281 -9.285156 C 14.320312 -9.113281 15.167969 -8.847656 15.902344 -8.453125 C 16.15625 -8.3125 16.859375 -7.542969 17.207031 -7.621094 Z M 17.207031 -7.621094 "/></g></g></g><g fill="#ed2323" fill-opacity="1"><g transform="translate(232.227735, 248.240874)"><g><path d="M 0.453125 -0.015625 C 0.515625 0.046875 0.597656 0.046875 0.675781 0.0625 C 1.457031 0.09375 2.320312 0.28125 3.074219 0.03125 C 4 -0.25 3.8125 -1.742188 4.894531 -1.742188 C 6.601562 -1.742188 8.3125 -1.710938 10.023438 -1.710938 C 10.867188 -1.710938 11.730469 -1.710938 12.578125 -1.742188 C 13.253906 -1.757812 14.101562 -1.945312 14.757812 -1.804688 C 15.449219 -1.648438 15.464844 -0.628906 15.949219 -0.21875 C 16.296875 0.09375 16.828125 0.09375 17.300781 0.09375 C 17.769531 0.078125 18.257812 0.0625 18.726562 0.0625 C 18.789062 0.0625 18.851562 0.0625 18.898438 0.03125 C 19.023438 -0.0625 18.929688 -0.265625 18.835938 -0.390625 C 16.53125 -3.496094 14.367188 -6.710938 12.375 -10.039062 C 12.125 -10.476562 11.808594 -10.949219 11.324219 -11.089844 C 11.089844 -11.167969 10.820312 -11.136719 10.570312 -11.121094 C 9.691406 -11.042969 7.9375 -11.261719 7.402344 -10.460938 C 5.394531 -7.433594 3.371094 -4.40625 1.363281 -1.394531 C 1.207031 -1.175781 0.203125 -0.3125 0.453125 -0.015625 Z M 6.148438 -4.0625 C 6.117188 -4.125 6.101562 -4.171875 6.101562 -4.234375 C 6.117188 -4.359375 6.195312 -4.453125 6.273438 -4.5625 C 6.871094 -5.316406 7.449219 -6.101562 8 -6.917969 C 8.28125 -7.339844 8.546875 -7.761719 8.816406 -8.1875 C 8.957031 -8.40625 9.347656 -9.378906 9.566406 -9.457031 C 10.070312 -9.644531 10.964844 -7.621094 11.214844 -7.214844 C 11.839844 -6.273438 12.5 -5.347656 13.191406 -4.453125 C 13.269531 -4.359375 13.347656 -4.234375 13.332031 -4.125 C 13.222656 -3.589844 11.605469 -4.015625 11.246094 -4.03125 C 9.816406 -4.15625 8.34375 -4.046875 6.917969 -3.859375 C 6.746094 -3.84375 6.570312 -3.8125 6.414062 -3.875 C 6.304688 -3.90625 6.195312 -3.96875 6.148438 -4.0625 Z M 6.148438 -4.0625 "/></g></g></g><g fill="#ed2323" fill-opacity="1"><g transform="translate(252.303421, 248.240874)"><g><path d="M 17.644531 -0.628906 C 17.03125 -1.238281 16.421875 -1.851562 15.839844 -2.476562 C 15.542969 -2.777344 15.277344 -3.089844 14.992188 -3.386719 C 14.710938 -3.65625 14.367188 -3.859375 14.132812 -4.171875 C 14.101562 -4.21875 14.070312 -4.265625 14.085938 -4.3125 C 14.101562 -4.46875 14.835938 -4.515625 14.976562 -4.546875 C 15.308594 -4.640625 15.652344 -4.753906 15.949219 -4.941406 C 16.1875 -5.082031 16.421875 -5.253906 16.625 -5.457031 C 16.734375 -5.582031 17.144531 -5.929688 17.144531 -6.117188 C 17.769531 -7.183594 17.722656 -8.640625 16.921875 -9.597656 C 16.4375 -10.179688 15.699219 -10.539062 14.960938 -10.726562 C 14.210938 -10.917969 13.425781 -10.933594 12.65625 -10.949219 C 9.082031 -11.042969 5.488281 -11.042969 1.914062 -10.964844 C 1.804688 -10.964844 1.695312 -10.964844 1.632812 -10.882812 C 1.570312 -10.820312 1.570312 -10.710938 1.570312 -10.632812 L 1.570312 -5.003906 C 1.570312 -4.0625 1.570312 -3.121094 1.570312 -2.195312 L 1.570312 -0.785156 C 1.570312 -0.5 1.347656 -0.03125 1.742188 0.078125 C 1.914062 0.125 2.070312 0.078125 2.242188 0.046875 C 2.824219 -0.078125 3.433594 -0.0625 4.015625 0.0625 C 4.125 0.09375 4.234375 0.125 4.328125 0.09375 C 4.53125 0.015625 4.5625 -0.25 4.546875 -0.453125 C 4.546875 -1.097656 4.53125 -1.742188 4.515625 -2.367188 C 4.5 -2.699219 4.5 -3.027344 4.484375 -3.355469 C 4.484375 -3.574219 4.484375 -3.78125 4.46875 -4 C 4.46875 -4.0625 4.46875 -4.140625 4.515625 -4.1875 C 4.65625 -4.328125 5.238281 -4.21875 5.441406 -4.21875 C 5.804688 -4.21875 6.148438 -4.234375 6.507812 -4.234375 C 7.167969 -4.234375 7.828125 -4.234375 8.46875 -4.25 L 9.691406 -4.25 C 10.007812 -4.265625 10.320312 -4.265625 10.632812 -4.15625 C 11.089844 -4.015625 11.433594 -3.640625 11.746094 -3.277344 L 14.195312 -0.628906 C 14.398438 -0.40625 14.601562 -0.171875 14.882812 -0.0625 C 15.121094 0.03125 15.386719 0.03125 15.652344 0.03125 L 17.988281 0.03125 C 18.050781 0.03125 18.128906 0.015625 18.148438 -0.03125 C 18.164062 -0.09375 18.113281 -0.125 18.082031 -0.171875 C 17.941406 -0.328125 17.785156 -0.46875 17.644531 -0.628906 Z M 9.566406 -6.273438 L 8.863281 -6.273438 C 7.527344 -6.289062 6.195312 -6.289062 4.863281 -6.289062 C 4.675781 -6.289062 4.515625 -6.335938 4.515625 -6.539062 C 4.515625 -7.027344 4.515625 -7.496094 4.5 -7.984375 C 4.5 -8.1875 4.359375 -8.78125 4.5625 -8.910156 C 4.65625 -8.988281 4.863281 -8.941406 4.988281 -8.941406 C 5.175781 -8.941406 5.363281 -8.910156 5.566406 -8.925781 L 6.382812 -8.925781 C 7.761719 -8.941406 9.128906 -8.925781 10.507812 -8.925781 C 11.371094 -8.925781 12.234375 -8.941406 13.097656 -8.796875 C 13.472656 -8.734375 13.863281 -8.640625 14.179688 -8.40625 C 14.492188 -8.1875 14.710938 -7.78125 14.617188 -7.402344 C 14.570312 -7.152344 14.367188 -6.933594 14.148438 -6.792969 C 13.910156 -6.648438 13.660156 -6.570312 13.394531 -6.507812 C 12.171875 -6.226562 10.851562 -6.242188 9.566406 -6.273438 Z M 9.566406 -6.273438 "/></g></g></g><g fill="#ed2323" fill-opacity="1"><g transform="translate(271.97132, 248.240874)"><g><path d="M 1.035156 -0.785156 C 1.066406 -0.738281 1.128906 -0.707031 1.191406 -0.675781 C 3.167969 0.25 5.425781 0.421875 7.605469 0.5 C 10.054688 0.597656 12.5625 0.582031 14.867188 -0.25 C 15.449219 -0.46875 16.042969 -0.753906 16.40625 -1.253906 C 16.65625 -1.585938 16.78125 -1.992188 16.875 -2.382812 C 16.984375 -2.824219 17.046875 -3.277344 16.96875 -3.734375 C 16.84375 -4.453125 16.3125 -5.066406 15.683594 -5.457031 C 15.042969 -5.835938 14.304688 -6.023438 13.582031 -6.132812 C 10.710938 -6.585938 7.746094 -6.164062 4.894531 -6.710938 C 4.28125 -6.839844 3.558594 -7.121094 3.480469 -7.746094 C 3.433594 -8.109375 3.65625 -8.46875 3.953125 -8.6875 C 4.25 -8.910156 4.625 -9.019531 4.988281 -9.097656 C 6.304688 -9.394531 7.667969 -9.488281 9.035156 -9.472656 C 9.707031 -9.472656 10.382812 -9.441406 11.058594 -9.378906 C 11.339844 -9.363281 11.605469 -9.410156 11.871094 -9.363281 C 12.15625 -9.316406 12.421875 -9.222656 12.6875 -9.144531 C 13.144531 -9.050781 13.582031 -8.925781 14.007812 -8.78125 C 14.835938 -8.484375 15.636719 -8.078125 16.265625 -7.449219 C 16.265625 -8.21875 16.28125 -8.988281 16.296875 -9.753906 C 16.296875 -9.882812 16.296875 -9.992188 16.25 -10.101562 C 16.1875 -10.226562 16.042969 -10.289062 15.917969 -10.351562 C 13.957031 -11.277344 11.714844 -11.402344 9.550781 -11.433594 C 7.511719 -11.464844 5.441406 -11.402344 3.480469 -10.867188 C 2.621094 -10.632812 1.773438 -10.289062 1.175781 -9.613281 C 0.421875 -8.75 0.28125 -7.402344 0.863281 -6.398438 C 1.285156 -5.660156 2.023438 -5.160156 2.808594 -4.878906 C 3.605469 -4.578125 4.453125 -4.5 5.300781 -4.4375 C 7.558594 -4.296875 9.832031 -4.375 12.109375 -4.203125 C 12.5625 -4.15625 13.050781 -4.109375 13.441406 -3.875 C 13.847656 -3.640625 14.148438 -3.167969 14.054688 -2.714844 C 13.910156 -2.148438 13.269531 -1.882812 12.703125 -1.757812 C 11.621094 -1.503906 10.492188 -1.457031 9.378906 -1.425781 C 7.90625 -1.410156 6.414062 -1.441406 4.957031 -1.726562 C 3.496094 -2.007812 2.070312 -2.570312 0.910156 -3.496094 C 0.878906 -2.652344 0.894531 -1.820312 0.957031 -0.988281 C 0.972656 -0.925781 0.972656 -0.863281 1.003906 -0.816406 C 1.019531 -0.800781 1.019531 -0.785156 1.035156 -0.785156 Z M 1.035156 -0.785156 "/></g></g></g><path stroke-linecap="butt" transform="matrix(0.758465, 0, 0, 0.75, 275.731743, 222.891636)" fill="none" stroke-linejoin="miter" d="M -0.00168029 0.998652 L 13.85752 0.998652 " stroke="#ffffff" stroke-width="2" stroke-opacity="1" stroke-miterlimit="4"/><path stroke-linecap="butt" transform="matrix(0.758465, 0, 0, 0.75, 88.876508, 222.891636)" fill="none" stroke-linejoin="miter" d="M -0.00198857 0.998652 L 13.857212 0.998652 " stroke="#ffffff" stroke-width="2" stroke-opacity="1" stroke-miterlimit="4"/></svg>